<?xml version="1.0" encoding="utf-8"?>
<!-- Generator: Adobe Illustrator 27.0.0, SVG Export Plug-In . SVG Version: 6.00 Build 0)  -->
<svg version="1.1" id="图层_1" xmlns="http://www.w3.org/2000/svg" xmlns:xlink="http://www.w3.org/1999/xlink" x="0px" y="0px"
	 viewBox="0 0 400 400" style="enable-background:new 0 0 400 400;" xml:space="preserve">
<style type="text/css">
	.st0{fill-rule:evenodd;clip-rule:evenodd;fill:#C7161D;}
	.st1{fill:#C8161D;}
</style>
<g>
	<g>
		<path class="st0" d="M152.5,243.7c0.4,0,0.7-0.1,1-0.2c0.9-0.3,2.5-2.4,6-7.2c1.2-1.7,2.4-3.3,3-4c0.9-1.1,2.6-3.4,4.3-5.9
			c1.6-2.4,3.3-4.8,4.3-6c1-1.1,1.9-2,2.7-2.7c0.9-0.8,1.6-1.4,2-2.1c0.7-1.5-0.3-3.2-1.6-4.3c-0.7-0.5-4.9-2.5-6.6-2.7
			c-0.2,0-0.6,0-0.9,0.3c-0.3,0.3-0.5,0.8-0.5,1.6c0.1,1,0.6,1.4,1.2,1.8c0.3,0.2,0.7,0.5,1.1,0.9c0.7,0.7,0.5,1.3-0.1,2.8l-0.3,0.6
			c-0.4,0.9-1.8,3.1-3.2,5.2c-1.2,1.9-2.4,3.7-2.9,4.7c-0.5,1-3,4.5-5.4,7.8c-3.4,4.9-5,7.1-5.2,7.7c-0.1,0.3-0.4,1.1,0.1,1.6
			C151.9,243.7,152.2,243.7,152.5,243.7z"/>
		<path class="st0" d="M172.7,231.2c-3-0.4-13.5,8.3-13.8,9.8c-0.1,0.3,0.2,0.7,0.5,0.8c0,0,0,0,0,0c0.9,0.2,2.4-0.4,4.1-1.1
			c1.1-0.4,2.4-1,3.1-1.1c-0.1,0.7-1,2.3-1.3,2.8c-0.1,0.3-0.3,0.5-0.4,0.7c-0.2,0.4-0.2,0.9,0.1,1.3c0.6,0.9,2.2,1.5,3.5,1.5
			c1.2,0,2.2-0.4,3.1-0.7c0.3-0.1,0.6-0.2,1-0.3c0.5-0.2,0.6-0.5,0.7-0.7c0.1-0.7-0.5-1.3-1.6-2.2c-0.6-0.5-1.7-1.4-1.7-1.8
			c0-0.5,1.7-1.8,2.6-2.5c1.1-0.9,2.1-1.6,2.4-2.3c0.5-0.8,1-1.9,0.5-2.9C175,231.9,174.1,231.4,172.7,231.2z"/>
		<path class="st0" d="M161.9,261.4c0.2-1.4-0.1-5.4-0.9-6.7c-0.7-1.1-0.9-1.9-1.2-2.9c-0.1-0.2-0.1-0.5-0.2-0.8
			c-0.2-1.4-0.5-3.1-1.4-3.7c-0.2-0.2-0.5-0.3-0.8-0.2c-0.5,0.1-0.8,0.5-0.9,0.7c0,0,0,0,0,0c-0.2,0.3-0.2,0.5-0.2,0.7
			c0.3,2.7,0.3,4.4,0,5c-0.2,0.3-0.4,0.6-0.6,1c-0.7,1-1.5,2.2-1.5,4.1c0,0.8,1.3,6.6,3.2,7c0.1,0,0.2,0,0.3,0
			c0.5,0,1.1-0.2,1.7-0.7C160.5,264.1,161.7,262.6,161.9,261.4z"/>
		<path class="st0" d="M172.2,247l-0.3,0c-1.3-0.1-4.2,0.9-5.2,1.6c-0.8,0.5-2.1,1.2-2.4,1.4c-0.5,0.1-0.8,0.5-1,1
			c-0.2,0.5-0.1,1.1,0.2,1.5c0.3,0.4,0.9,0.5,1.8,0.6c0.7,0.1,1.7,0.1,2,0.4c0,0.3-0.9,1.1-1.3,1.5c-0.5,0.4-0.9,0.8-1.1,1.2
			c-0.6,1-0.7,2.7-0.4,3.3c0.2,0.6,1.1,2,4.6,2c1.3,0,3.2-1.1,5.5-10.7l0.1-0.3c0.3-1.2,0.2-2-0.2-2.6
			C173.9,247.1,173,247.1,172.2,247z"/>
		<path class="st0" d="M177.2,252.7c0,0,0.1,0,0.2,0c0.9,0,2.2-1.1,2.3-1.2c0.4-0.3,0.6-0.6,0.8-0.8c0.8-0.6,2.7-3.2,3.1-3.7
			c0,0,0,0,0,0v2.6c0,0.3-0.1,0.9-0.1,1.5c-0.1,0.8-0.2,1.6-0.2,1.9c0,0.2-0.2,0.5-0.3,0.8c-0.2,0.5-0.5,1-0.5,1.5
			c0,0.3,0,0.7-0.1,1.2c-0.1,0.6-0.2,1.4-0.2,2.1c0,0.7-0.1,1.9-0.2,3.1c-0.1,0.8-0.1,1.5-0.2,2.1c0,0.8-0.2,1.6-0.3,2.2
			c-0.1,0.6-0.2,1.2-0.2,1.6c0,0.5-0.1,1.7-0.2,2.7c0,0.7-0.1,1.4-0.1,1.9c-0.1,1.1,0.4,3.3,0.4,3.4c0.8,4.8,1.7,5.2,2.2,5.2
			c0.1,0,0.1,0,0.2,0c1.1-0.1,2-2,2.5-3.3c0.2-0.8,0.5-2.1,0.8-2.6c0.3-0.5,0.3-1.5,0.2-3.7c0-1.1-0.1-2.3,0-2.8
			c0.2-0.9,0.1-3.1-0.1-5.9c-0.1-1-0.1-1.8-0.1-2.2c0-0.6,0.2-2.2,0.4-3.6c0.2-1.3,0.3-2.4,0.3-2.8c0-0.4,0-0.9,0-1.6c0,0,0,0,0.1,0
			c0.6,0.3,1.1,0.5,1.5,0.5c0.9,0,1.6-0.5,2.6-1.1c1.4-1,9-10.3,9.7-12.9c0.6-2.2-0.2-2.7-1.4-3.2c-0.2-0.1-0.5-0.2-0.7-0.3
			c-1.9-1-9.9,2.6-9.9,2.7c0,0-0.1,0.1-0.2,0.1c0-0.1-0.1-0.2-0.1-0.2c-0.9-0.9-1.3-1.4-1.7-1.9c-0.1-0.2-0.2-0.3-0.2-0.5
			c0-0.3-0.1-0.6-0.4-1c0.8-0.5,2.3-1.5,4.8-3.4c2.4-1.7,5.7-4,6.2-4.2c1.4-0.5,1.9-2.4,1.8-3.5c-0.1-0.5-0.3-0.8-0.6-1.1
			c-0.6-0.4-1.5-0.4-3.6,0c-2.5,0.5-14.1,5.9-15.2,6.7c0,0,0,0,0,0c-0.8,0.6-1.2,1.3-1.2,2c0,0.4,0.2,0.7,0.5,0.9
			c0.3,0.2,0.8,0.3,2.7,0.6c1,0.1,2.3,0.3,2.5,0.4c0.1,0.1,0,0.5,0,0.7c0,0.2,0,0.3,0,0.5c-0.4,0.2-0.6,0.8-0.9,1.3
			c-0.1,0.2-0.2,0.4-0.3,0.5c-0.6,1,0.2,2.4,1,2.9c0,0.1,0.1,0.7-0.7,1.9c-0.4,0.7-0.6,1.8-0.7,3c-1.2,1.2-4.8,4.2-5.4,4.8
			c-0.8,0.3-2.2,1-2.5,2.1c-0.2,0.6-0.2,1.1,0.1,1.5C176.1,252.5,176.7,252.6,177.2,252.7z M188.2,247.1c0.2-1,1.2-4,1.4-4.4
			c0.1-0.2,0.2-0.5,0.3-0.9c0.9-0.7,1.4-1.2,1.5-1.3c0.3-0.4,2.1-1.5,3.3-2.2c0.4-0.2,2-0.6,3-0.8c0,0.5-0.4,1.4-0.9,2.1
			c-0.9,1.2-6.6,8.5-7.4,8.9c-0.2,0-0.8-0.3-1.4-0.8C188.2,247.5,188.2,247.3,188.2,247.1z"/>
		<path class="st0" d="M225.2,232.9c0.2,0.1,0.4,0.2,0.7,0.2c1.1,0,2.6-1,2.7-1c1-0.6,0.8-1.9,0.6-2.8c0-0.3-0.1-0.7-0.1-0.8
			c0-0.2,0.2-0.4,0.5-0.6c0.3-0.2,0.6-0.5,0.8-0.9c0.2-0.3,0.2-0.6,0.1-0.9c-0.1-0.5-0.6-0.7-1-0.9c-0.2-0.1-0.4-0.2-0.6-0.4
			c-0.2-0.1-0.2-0.2,0-0.8c0.1-0.3,0.2-0.6,0.2-1c0.2-1.2,0.1-4.5-0.3-5.2c0,0,0,0,0,0c-0.2-0.5-0.6-0.6-0.8-0.6
			c-0.7-0.1-1.2,0.7-1.6,1.3l-0.1,0.2c-0.4,0.5-0.7,1.4-1.1,2.4c-0.2,0.6-0.4,1.1-0.6,1.6l-0.4,0.8c-0.5,1.1-1,2.1-1.1,2.8l0,0.2
			c-0.1,0.9-0.4,2.6,0.1,3.6C223.5,231.4,224.8,232.6,225.2,232.9z"/>
		<path class="st0" d="M234.6,224.6c0.6,0.1,1.5,0.2,2.6,1.1c1.2,0.9,1.8,1.8,2,2.5c0,0,0,0.1,0,0.2l0,0c0,0,0,0.1,0.1,0.3
			c0,0.1,0.1,0.3,0.1,0.5c0,0,0,0.1,0,0.1c0,0.1,0,0.1,0.1,0.2c0.1,0.4,0.4,0.6,0.6,0.7c0.1,0,0.2,0,0.3,0c0.5,0,1.1-0.4,1.8-1
			c0.5-0.4,1.1-0.8,1.7-1.1c0.6-0.3,1-0.7,1.2-1.3c0.3-0.9-0.2-1.8-0.5-2.3c0-0.1-0.1-0.2-0.2-0.3c-0.3-0.4-0.7-1.1-0.5-1.8
			c0.2-0.5,0.4-0.6,1.2-0.8c0.4-0.1,1-0.3,1.6-0.6c0.4-0.2,1-0.6,1.7-1c0.8-0.4,1.9-1.1,2.6-1.4c-0.2,0.8-0.5,1.9-0.9,2.3
			c-0.8,0.8-3.7,3.8-3.8,4c-0.1,0.1-0.2,0.3-0.1,0.5c0,0.2,0.2,1,0.8,1.4c0.3,0.2,0.6,0.2,0.9,0.2c0.2-0.1,0.5-0.2,1.6-1.1
			c1.1-0.8,2.8-2.1,4.5-3.2c2.1-1.3,4.3-2.3,5.9-3.1c0.9-0.4,1.7-0.8,2.1-1c0.7-0.4,0.8-1,0.7-1.4c-0.2-1.9-4.7-3.8-5.1-4
			c-1.2-0.4-2.3,0.6-3,1.4c-0.6,0.7-1.9,1.3-2.1,1.4c-0.4,0-3.2,0.6-5.4,2.3c-2,1.5-5.6,2.6-6.3,2.6c-0.4,0-1.2-0.2-2-0.4
			c-0.9-0.2-1.8-0.4-2.4-0.5c-0.6,0-1.3,0.3-2,1c-0.7,0.7-1.3,1.8-1.3,2.6C233.3,224.3,234.1,224.5,234.6,224.6z"/>
		<path class="st0" d="M240.9,257.2c0.2-0.8,0.1-1.6-0.5-2.3c-1.1-1.4-1.4-2.9-1.2-3.4c0.4-1,0.1-2.1,0.1-2.1
			c-0.1-0.3-0.3-0.4-0.6-0.4c-0.2,0-0.7-0.1-0.8-0.3c0-0.1-0.1-0.2-0.2-0.3c0.1-0.1,0.1-0.2,0.2-0.2l0.1-0.1
			c1.6-1.9,3.9-4.5,4.5-6.5c0.3-0.8,0-1.4-0.3-1.7c-0.9-1-3-0.9-3.9-0.7c-0.3,0.1-1,0.3-1.9,0.6c0-0.2,0-0.5,0-0.8
			c0.5-0.3,0.9-0.5,1-0.6c0.6-0.4,0.7-1.3,0.3-2.9c-0.1-0.3-0.3-0.5-0.5-0.7c-0.2-0.1-0.3-0.1-0.5-0.2c0.1-1.6,0.1-2,0-2.3
			c-0.2-0.5-0.5-1.4-2.3-1.3c-1.3,0-1.3,1.2-1.3,1.7c0,0.1,0,0.2,0,0.3l-0.1,0.3c-0.1,0.4-0.1,0.9-0.2,1.9c0,0.1,0,0.1,0,0.2
			c-0.8,0.4-1.9,1.3-2.3,1.7c-0.4,0.5-0.5,1.3-0.5,2.3c0,0.9,1,1,1.8,1c-0.1,0.5-0.2,0.9-0.3,1.4c0,0,0,0.1,0,0.1
			c-0.2,0.1-0.3,0.3-0.5,0.4c-0.5,0.6-2.1,1.9-3.3,2.8c-1.1,0.8-1.6,1.3-1.8,1.5c-0.1,0.2-0.3,0.2-0.3,0.2c0,0-0.2,0-0.3-0.2
			c-0.1-0.1-0.1-0.2-0.1-0.3c-0.1-0.9-0.8-0.9-1.3-0.8c-0.8,0-1.2,0.4-1.4,0.7c-0.5,0.7-0.4,1.6-0.4,1.9c0,0.4-0.1,2,0.3,3
			c0.2,0.4,0.4,0.6,0.8,0.7c0.6,0.1,1.1-0.2,1.7-0.6c0.2-0.1,0.3-0.2,0.5-0.3c1.1-0.6,3.4-2.9,5.1-4.6c0,0.1,0,0.2,0,0.3
			c0,0.3-0.1,0.8-0.2,1.5c-0.3,0.3-0.6,0.5-1,0.7c-0.6,0.4-1.1,0.7-1.3,1.2c-0.2,0.6,0.1,1.2,0.4,1.9c0.2,0.5,0.4,1,0.4,1.4
			c0,0.4-1.6,1.7-2.3,2.3c-0.6,0.5-1.1,0.9-1.5,1.3c-0.2,0.2-0.6,0.6-1,1c-2.8,2.9-2.9,3-2.5,3.5c0.1,0.1,0.2,0.2,0.4,0.2
			c0.1,0,0.3,0,0.5-0.2c1-0.6,2.5-1.8,3.9-2.9c0.9-0.7,1.8-1.4,2.6-1.9c0,0.5-0.1,1.4-0.2,2.4c-0.1,0.1-0.1,0.1-0.2,0.2
			c-0.5,0.6-5.8,3.8-7.3,4.1c-0.1,0-0.1,0-0.1,0c0-0.2,0.2-0.4,0.3-0.6c0.1-0.1,0.1-0.3,0.1-0.4c0-0.2-0.1-0.3-0.3-0.4
			c-0.3-0.2-0.7-0.3-1.3,0c-1.3,0.6-3,3.1-3.1,4.2c-0.2,1.7,0.7,2.9,2.2,3.2c0.1,0,0.1,0,0.2,0c1,0,2.7-1.1,5.7-3.3
			c0.4-0.3,0.8-0.6,1-0.7c0.4-0.3,1.2-0.6,1.9-1c0,0.1,0,0.3,0.1,0.4c0.1,0.7,0.3,1.9,0.1,2.7c-0.1,0.4-0.5,0.9-0.9,1.5
			c-0.8,1-1.6,2.2-1.6,3.4c0,0.8,1.4,5.1,2.4,5.4c0.3,0.1,0.6,0.2,0.9,0.2c0.5,0,1.1-0.2,1.7-0.5c0.9-0.5,1.3-2,1.7-3.3
			c0.1-0.4,0.2-0.8,0.3-1.1c0.1-0.3,0.1-0.8,0.2-1.8c0-0.7,0.1-1.4,0.1-2.3c0.2-2.6,0.8-5.8,1.1-6.6c0.1-0.2,0.1-0.4,0.1-0.5
			c1.1-0.8,3.1-2.1,4.1-2.4C239.8,259.1,240.6,258.2,240.9,257.2z M235.5,255.9c-0.1,0.1-0.6,0.3-1.1,0.6c0-0.2,0-0.3,0-0.5
			c0-1.3,0.2-2.4,0.6-3.3c0.1-0.3,0.3-1,0.5-1.8c0.1-0.2,0.3-0.3,0.4-0.5c0.1,0.4,0.2,1,0.4,1.6C236.6,252.9,236.5,255,235.5,255.9z
			 M236.6,244.6c0-0.3,0.1-0.6,0.1-0.9c0.1-0.5,0.2-1,0.2-1.6c1-0.5,1.9-0.8,2.4-0.9c0.1,0.1,0.3,0.7-0.7,2c-0.4,0.5-1.1,1-2,1.6
			C236.6,244.7,236.6,244.6,236.6,244.6z"/>
		<path class="st0" d="M256.9,242.6c2.3-2.2,5-4.6,5.8-7.1c0.2-0.5,0.1-0.9-0.2-1.4c-0.6-0.9-2.3-1.4-4-1.4
			c-1.6,0.1-3.8,1.3-5.1,2.1c-0.3,0.2-0.5,0.3-0.7,0.4c0,0,0,0,0,0c-0.5,0.3-1.4,0.7-1.2,1.5c0.2,0.7,1.2,0.7,1.7,0.7
			c0.8,0,1.4-0.3,1.9-0.6c0.4-0.2,0.8-0.4,1.2-0.5c-0.1,0.4-0.8,1.4-1.7,2.2c-1.9,1.5-4.6,8.1-4.5,9.8c0.1,1.7,2.5,3.9,3.8,3.9
			c0,0,0,0,0.1,0c0.7,0,1.2-0.3,1.8-0.6c0.2-0.1,0.5-0.3,0.8-0.4c0.6-0.3,0.7-0.7,0.7-0.9c0-0.6-0.6-1.3-1.9-2
			c-0.3-0.1-0.5-0.2-0.8-0.3c-0.6-0.2-0.9-0.3-1-1.6C253.5,245.7,255.3,244,256.9,242.6z"/>
		<path class="st0" d="M271.5,260.4c-0.4-0.9-0.8-3-1.1-4.8c-0.2-1.2-0.4-2.3-0.6-2.9c-0.4-1.3-2-4.9-2.1-5.1
			c-0.1-0.2-0.2-0.3-0.4-0.3c-0.1,0-0.7-0.2-1.2,0.2c-0.2,0.2-0.4,0.5-0.3,1.2c0.2,1.3,0.4,2,0.7,3c0.3,0.9,0.4,4.3,0.4,9.3
			c0,0.9-0.8,1.9-2,1.9c-0.9,0-3.3,0.4-5.6,0.8c-1.6,0.3-3.2,0.5-3.7,0.6c-0.3,0-0.7,0.1-1.2,0.1c-1.3,0.2-4.2,0.6-4.7,0
			c-0.7-0.9-0.7-5.1-0.5-5.7c0.2-0.4,1.3-3.3,0.6-5c-0.3-0.8-0.3-6-0.2-8.4c0-0.7,0-1.3,0-1.7c0-0.3-0.2-0.5-0.4-0.6
			c-0.3-0.1-0.5,0.1-0.7,0.3c-2.1,3.9-2.2,4.3-2.3,4.5c0,0,0,0.1-0.1,0.2c-0.4,0.8-0.8,2.3-1.1,3.7c-0.3,1.1-0.6,2.2-0.9,2.9
			c-0.9,2.5-1.2,7.8-0.6,9.7c0.1,0.4,0.2,0.7,0.3,1c0.5,2.2,0.9,3.2,5.6,4.3c0.4,0.1,1,0.1,1.8,0.1c1.7,0,4.1-0.2,6.8-0.4
			c2.3-0.2,4.6-0.4,6.4-0.4c4.8-0.2,7.1-0.8,7.8-2.3C273,264.7,272.4,262.2,271.5,260.4z"/>
		<g>
			<path class="st0" d="M315,247c0.5-0.4,1.1-0.9,1.4-0.9c0.5,0,1.4-0.3,2.4-0.5c1-0.3,2.1-0.6,2.6-0.6c1.4,0,4.8-2.5,6.1-4.5
				c0.6-0.9,0.8-1.6,0.5-2.2c-0.3-0.9-1.5-0.9-2.5-0.9c-0.4,0-0.8,0-1.1-0.1c-0.8-0.1-2.1-2-2.4-2.7c-0.2-0.5-0.6-0.6-0.8-0.6
				c0,0,0,0,0,0c-0.8,0-1.3,1-1.4,1.2c-0.3,0.6,0.2,1.5,0.9,2.6c0.2,0.3,0.4,0.7,0.6,1c0.5,0.8,0.1,1.3,0.1,1.3c0,0-2.3,1.5-5.4,2.9
				c-1.3,0.6-2.8,1.2-4.2,1.7c0.2-1.3,0.4-2.4,0.5-2.9c0.3-1.7,1.9-10.1,2.8-12.1c1-2.2,1.6-7.8,1.7-10.1c0.1-3-5.7-6.8-6.3-7.2
				c-0.1-0.1-0.3-0.1-0.5-0.1c-0.4,0.1-0.6,0.4-0.8,0.7c-0.3,0.8,0,1.8,0.2,2.2c0.1,0.5,0.4,3.5,0.4,5.1c0,1.7-0.1,12.2-0.2,15.8
				c-0.1,1.2-1,7.1-1.5,10.1c-0.8,0.3-1.3,0.5-1.6,0.6c-2.3,1-14.4,6.1-15.2,6.2c-0.4,0-0.7-0.1-1-0.2c-0.3-0.1-0.8-0.3-1.2-0.3
				c0,0,0,0,0,0c-0.4,0-1,0.1-1.3,0.6c-0.3,0.5-0.1,0.9,0.1,1.3c0.1,0.1,0.1,0.2,0.1,0.3c0.3,0.9,2,2.6,2.6,2.8
				c0.2,0.1,0.4,0.1,0.7,0.1c0.5,0,1.1-0.2,1.5-0.5c0.3-0.2,2.5-1.3,4.3-2.2c1.9-0.9,3.9-1.9,4.7-2.3c1.1-0.6,4.1-1.9,5.8-2.6
				c-0.2,1-0.5,2.2-1,3.6c-0.5,1.6-2.8,6-5.4,9c-3.1,3.4-7.4,5.8-9,6.2c-1.8,0.4-2.1,0-2.5-0.4c-0.2-0.2-0.5-0.6-0.9-0.6
				c-1-0.2-1.6,0.1-1.7,0.2c-0.1,0.1-0.2,0.2-0.2,0.4c0,0.1-0.3,2,1.7,3.1c0.8,0.4,1.9,0.6,3,0.6c2.2,0,4.8-0.6,6-1.2l0.5-0.2
				c1.9-0.9,4.4-2,6.9-5.4c1.7-2.2,4.2-9.6,5.3-12.7c0.2-0.6,0.3-1,0.4-1.2c0.1-0.3,0.3-1.2,0.5-2.2c0.8-0.2,1.5-0.5,2.1-0.7
				C313.8,248,314.4,247.5,315,247z"/>
			<path class="st0" d="M332.7,265.5c-0.1-0.1-0.2-0.1-0.3-0.1c0,0-3.8,0.3-6.4-0.1c-1.8-0.3-9.3-8.1-13.6-13
				c-0.1-0.1-0.2-0.2-0.3-0.2c-0.5-0.1-0.7,0.1-0.8,0.3c-0.4,0.5-0.1,1.2,0.3,2c0.4,0.8,1.9,4.4,2.4,5.6c0.1,0.2,0.3,0.7,0.5,1.3
				c1,2.7,2.8,7.6,3.8,9.1c1.2,1.8,3,3,4.6,3c0,0,0.1,0,0.1,0c1.7-0.1,8.6-5,9.4-5.8c0.5-0.5,0.8-1,0.7-1.4
				C333.1,265.8,332.9,265.6,332.7,265.5z"/>
		</g>
		<path class="st0" d="M393.1,233.8l-0.1-0.3c-0.2-0.6-0.5-1.3-1.1-1.6c-0.1-0.1-0.2-0.1-0.3-0.2c-0.4-0.2-0.8-0.5-1.7-0.4
			c-0.9,0.1-1.9,0.3-3,1.1c-0.7,0.5-1.2,0.5-1.7,0.5l-0.1,0c0,0-0.1-0.1-0.1-0.1c0.5-0.8,1.6-2.8,1.8-3.4c0.2-0.8,3.3-9.8,3.8-10.5
			c0.5-0.7,0.6-1.9,0.7-2.7c0-0.2,0.1-0.6,0.1-0.6c0.1-0.2,1.2-1.9,1.2-2.9l0-0.2c0-0.7,0-1.6-0.6-2.1l-0.2-0.1
			c-0.3-0.3-0.6-0.5-1.2-0.5c-0.1,0-0.2,0-0.3,0c-0.4,0-1.1,0-1.4,0.4c-0.1,0.2-0.3,0.4-0.2,0.9c0,0.3,0.1,0.6,0.2,0.8
			c0.2,0.4,0.3,0.7,0.2,1c-0.2,0.4-1,2.3-1.9,4.4c-1.1,2.5-2.2,5.3-2.4,5.6c-0.1,0.3-0.9,2.2-2,5.1c-0.8,2-1.5,3.9-1.7,4.3
			c0,0.1-0.1,0.3-0.1,0.4c-0.5,0.1-0.9,0.2-1.1,0.2c-0.1-0.2,0-1,0-1.4c0-0.2,0-0.4,0-0.5c0,0,0-0.1,0.1-0.1
			c0.2-0.4,0.5-0.8,0.6-0.8c0.5-0.5,0.9-1.8,1.5-4.7c0.5-2.3,0.1-4-3.2-4.7c-0.5-0.1-0.9-0.1-1.4,0c0.6-0.4,1.5-1.2,2.4-1.9
			c0.8-0.7,1.6-1.3,2-1.6c0.9-0.7,4.3-3.5,4.8-4c1-1,1.4-1.6,1.2-2.1c0-0.1-0.2-0.5-0.7-0.5c-0.2,0-1-0.1-13.2,9c0,0,0-0.1-0.1-0.1
			c0-0.5,1.7-2,2.7-2.9c1.4-1.2,2.8-2.5,3.3-3.5c0.1-0.2,0.2-0.5,0-0.9c-0.6-1.5-4.4-3.2-5.1-3.6c-0.1,0-0.1,0-0.2,0
			c-0.2,0-0.3-0.1-0.4-0.1c-0.5-0.1-0.7,0-1.1,0.4c-0.7,0.6-0.3,1.6,0.3,2.4c0,0.3-0.2,1.1-0.5,1.7c-0.2,0.3-0.4,0.8-0.7,1.4
			c-0.5,1.1-1.2,2.5-1.8,3.3c-0.5,0.6-0.8,1.4-1,2.2c0,0,0,0-0.1,0l-0.6,0c-0.5-0.8-1.7-2.9-2.8-3.3c-0.6-0.2-2.4-1.3-3.8-2.1
			c-1.1-0.7-2.1-1.3-2.6-1.5c-0.5-0.2-2.3-0.7-2.7,0.1c-0.2,0.4,0,0.8,0.6,1.1c1.8,1.6,3.4,3.4,3.4,3.9c0,0,0.1,4.5,0.7,5.1
			c0.1,0.1,0.1,0.1,0.2,0.2c0.2,0.2,0.4,0.3,0.4,1c0,0.7,0.2,1.7,0.3,2.6c0.1,0.7,0.2,1.3,0.2,1.6c0,0.1,0,0.1,0,0.2
			c-0.2,0.1-0.3,0.2-0.4,0.3c-0.4,0.4-0.8,1.4-1,2c0,0-0.1,0.6-0.7,1.9c-0.2,0.5-0.3,0.5-0.3,0.5c0,0-0.2-0.1-0.3-0.1
			c-0.2-0.1-0.5-0.2-0.8-0.2c-0.2,0-0.4-0.3-0.4-1.7c0-0.9-0.8-1.8-1.4-2.4l-0.2-0.2c-0.5-0.5-1.2-0.8-2-1.1
			c-0.2-0.1-0.4-0.1-0.6-0.2c-0.5-0.2-0.8,0-0.9,0.1c-0.5,0.4-0.3,1.3-0.2,1.8c0,0,0.3,0.8,0.5,1.3c0.1,0.2,0.2,0.4,0.3,0.6
			c0.3,0.5,0.7,1.1,0.6,1.6c0,0.1-0.6,3.6,0,4.7c0.5,1,2,2.2,3,2.4c0.1,0,0.2,0,0.3,0c0.8,0,1.1-0.7,1.3-1.1c0-0.1,0.1-0.2,0.1-0.3
			c0.2-0.2,0.4-0.6,0.6-1.2c0.2-0.5,0.5-1.2,0.9-1.8c0.4-0.6,0.6-0.7,0.9-0.9c0.3-0.1,0.7-0.3,1.1-0.9c0.5-0.6,0.9-1.3,1.2-1.8
			c0.2-0.3,0.3-0.6,0.4-0.7c0.4-0.5,1.5-2.1,1.5-2.1l5-4.9c0,0,0,0,0,0c0,0,0.1,0,0.2,0.1c-0.3,0.7-0.8,1.5-1.1,1.8
			c-0.2,0.2-0.6,0.7-0.9,1.3c-0.2,0-0.5,0-0.6,0c-0.5,0.1-1.3,0.3-1.5,0.8c-0.1,0.3,0,0.6,0,0.7c0,0.1,0.3,0.6,0.7,1
			c-0.3,0.6-0.6,1.1-0.7,1.5c-0.9,2.1-3,4.7-3.3,5.1l-7.1,6.2c-0.3,0.3-7.5,7.1-9.3,9.4c-1,1.2-0.9,2.9,0.1,4.4
			c0.7,1.1,1.8,1.7,2.8,1.7c0.2,0,0.5,0,0.7-0.1c1.5-0.5,3.5-2.8,5.2-4.8c0.8-1,1.6-1.9,2.2-2.4c0.1-0.1,0.4-0.4,0.7-0.7
			c1.4-1.3,4.2-4.1,7.3-6.2c3.8-2.6,8.5-4.9,10.7-6c0.7-0.3,1-0.5,1.2-0.6c1.3,0,3-0.7,3.8-1.1c0.5-0.3,1-0.9,1.4-1.4
			c1.2-0.1,3.8-1.1,4.2-1.3c0.3-0.1,1.3-0.1,1.4-0.1c0.1,0.1,0.2,0.3,0.3,0.4c0.1,0.2,0.3,0.4,0.3,0.5c-0.8,0.6-4.6,3.6-5.9,4.5
			c-2.1,1.4-8.2,4.9-9.1,5.3c-0.8,0.4-1.2,1.2-1.4,1.7c-0.4,0-1.2,0-2.1,0c-0.6,0-1.2,0-1.7,0c-0.3,0-0.7,0.2-0.9,1.2
			c-0.1,1,0.2,2,1.1,2.2c0.4,0.1,1.1,0.1,1.8,0c0.6,0,1.5-0.1,1.9,0c0.1,0.6,0.2,3-0.4,4.2c-0.1,0.3-0.3,0.4-0.4,0.5
			c-0.6,0.2-2.2,0.8-4,1.4c-1.6,0.6-3.5,1.2-4.9,1.7c-2.4,0.8-14.3,6.8-14.2,9.3c0,0.3,0.1,1,4,2.9c0.1,0,0.1,0,0.2,0.1
			c0.6,0.5,2.4,1.9,3.6,2.7c1.6,1.1,5.3,3,6.9,3.4c1.7,0.4,7.4,2.6,8.2,3c0.3,0.2,0.7,0.2,1,0.2c1,0,1.8-0.7,2.4-1.3
			c1.2-1.2,0.4-5-0.2-5.9c-0.3-0.5-0.4-2.9-0.5-4c0-0.5-0.1-1-0.1-1.2c0-0.3,0.1-0.9,0.2-1.5c0.1-0.7,0.3-1.5,0.3-2.3
			c0-0.5,0-1-0.1-1.6c-0.1-0.7-0.1-1.7-0.1-2.1c0.9-0.1,4.5-0.2,6.7-0.2c1.6,0,2.8-0.1,3.2-0.1c1.3-0.1,1.5-1.2,1.6-2.1l0.1-0.4
			c0.2-1.1-0.9-2-1.9-2.7c-0.2-0.2-0.5-0.4-0.7-0.5c-0.3-0.2-0.4-0.4-0.5-0.6c-0.3-0.3-0.5-0.6-1.3-0.6c-0.9,0-2.6,0.6-3.3,1.5
			c-0.4,0.6-0.7,0.9-1.9,0.9c-1.2,0-1.3-0.6-1.3-0.8c0-0.1-0.1-0.3-0.1-0.4c-0.1-0.4-0.2-0.7,0.4-1.5c0.8-1.1,1-1.5,1.2-2l0.1-0.3
			c0.6-1.2,0.1-1.8-1-2.4c-0.1,0-0.2-0.1-0.2-0.2c0-0.1,0.1-0.3,0.2-0.4c0.6-0.3,4.3-2.1,5-2.4c0.4-0.2,1.2-0.8,2.5-1.6
			c0.7-0.5,1.7-1.1,1.9-1.2c0.7-0.3,5.5-4.6,6.5-5.6c0.1-0.1,0.1-0.1,0.1-0.2c0.2-0.1,0.3-0.2,0.3-0.4c0-0.1,0-0.3,0-0.4
			C393.2,234.3,393.2,234,393.1,233.8z M366.5,227c-0.6,0.4-1.3,0.7-1.5,0.8c-0.1,0-0.2,0.1-0.3,0.1c-0.1-1.8,0-3.5,0.2-3.7
			c0.6-0.2,1.3-0.3,1.7-0.4c0.3,0.5,0.7,0.8,1,0.7c0.1,0,0.5-0.1,0.7-0.6c0.2-0.6,0.7-1,0.9-1c0.1,0,0.2,0,0.3-0.1
			c0.1,0.2,0.3,0.4,0.4,0.6L366.5,227z M369.5,233c0.3-0.3,0.6-0.6,0.9-1c0.1,0,0.3,0.1,0.5,0.1c0.2,0,0.5,0.1,0.9,0.1
			c0.4,0.1,0.7,0.1,1,0.1c1.3,0,2.1-0.5,2.3-1c0.5-0.9-1-2-1.2-2.2c-0.2-0.1-0.5-0.3-1-0.5c0.3-0.4,0.6-0.8,0.8-1.2
			c0.5-0.7,1.1-1.3,1.6-1.9c0.3,1.8,0.5,2.4,0.6,2.5c0.1,0.3,0,1.5-0.1,2.3c-0.7,1.2-1.5,2.2-2.1,2.7c-1.7,1.3-4.9,1.9-6,2.1
			C368.4,234.4,369,233.5,369.5,233z M365.3,242.7c-2.2,1.6-4.4,3.4-6.4,4.9c-2.8,2.3-6.3,5-7.2,5.1c0.4-1.9,10.1-10.8,13.6-13.6
			c0.2-0.1,0.3-0.3,0.5-0.5c0.1,0.2,0.4,0.4,1,0.3c0.8-0.2,1.5-0.4,2.2-0.7c0.7-0.2,1.4-0.5,2.2-0.7c1.1-0.3,2.1-0.8,3.1-1.4
			c0.6-0.3,1.2-0.7,1.9-1c0.1,0,0.2-0.1,0.3-0.2c0,0.3,0.1,0.7,0.2,1.2C375.3,236.8,370.1,239.3,365.3,242.7z M377.9,226.5
			c0-0.1,0-0.1-0.1-0.2c-0.1-0.5-0.2-1.5-0.3-2.3c0.4-0.2,0.7-0.3,1-0.3c0,0,0.1,0,0.1,0C378.7,224,378.4,225.2,377.9,226.5z
			 M372.6,261.6l0,0.4c-0.2,1.7-0.6,6.1-0.4,8.9c0.1,1.7-0.1,2.3-0.3,2.5c-0.1,0.1-0.3,0.2-0.8,0.1l-0.5,0c-1.9-0.2-7-0.6-9-1.2
			c-1.7-0.5-5-2.9-6.2-3.8c0.4-0.1,0.9-0.3,1.9-0.7c0.4-0.2,0.8-0.3,1-0.4c0.6-0.2,1.1-0.6,1.7-1.1c0.3-0.2,0.6-0.5,1-0.8
			c1.1-0.8,2.8-1.8,4.3-2.6c2-1,4.3-1.8,5.2-2.2c1.2-0.5,1.9-0.4,2.2-0.4L372.6,261.6z"/>
		<path class="st0" d="M50.6,252.3c0,2.4-0.1,4.9-0.2,7.4c-0.1,1.4-0.4,3.3,0.1,4.6c0.5,1,2.2,1.6,3.1,2.2c1.1,0.7,2,1.9,3.3,2.3
			c1.3,0.4,1.4-0.1,1.2-1.2c-0.5-3.2-0.6-6.3-0.9-9.5c-0.2-2.2-0.1-4.5-0.1-6.7c-1,0.5-2.3,1.3-3.4,1.5
			C52.8,253,51.5,252.5,50.6,252.3z M53,239.3c-0.4,0.3-1,1.7-0.5,2.1c0.5,0.4,0.8-0.2,0.9-0.7C53.6,240.2,53.5,239.8,53,239.3z
			 M61.8,228.4c-0.9,2.8-2,5.5-2.4,8.3c-0.4,2.2-0.7,4.4-1.2,6.6c-0.1,0.5-0.1,1.9-0.5,2.3c-0.2,0.3-1.1,0.4-1.5,0.5
			c0.3-1.9,0.9-3.8,1.5-5.7c0.1-0.4,0.4-0.9,0.4-1.3c-0.1-0.5-0.7-1.1-1.1-1.4c-0.4-0.4-0.9-0.6-1.4-0.8c-0.4-0.2-1.2-0.3-1.6-0.5
			c-1.5-1,1.7-4.7,2.6-5.5C57.7,229.7,60.1,228,61.8,228.4z M19.8,208.9c2.7-0.4,5.4-0.2,7.5,1.7c1.7,1.5,3.8,4.7,2.4,7
			c-0.5,0.9-1.8,1.5-2.7,1.6c-0.8,0.1-1.3,0.1-1.7,0.9c-0.2,0.4-0.3,0.9-0.5,1.4c-0.3,1.1-0.5,2.3-0.9,3.5c-0.4,1.3-1,2.6-1.6,3.8
			c-0.3,0.7-0.7,1.3-1.1,2c-0.3,0.7-0.4,1.4-0.5,2.1c-0.1,1.4,0.3,2.6,0.9,3.8c0.5,1,1,1.9,1.5,2.9c0.3,0.5,0.5,1,0.8,1.5
			c0.5,0.8,0.6,0.9,0.1,1.8c-1.2,1.9-2.1,3.8-2.7,6c-0.6,2.1-0.7,4.2-0.8,6.4c-0.1,2.9,0.1,5.9,0.1,8.8c0,1.2-0.1,3,0.5,4.1
			c0.6,1.1,0.8-0.7,0.8-1.3c0-1.7-0.3-3.5-0.3-5.2c-0.1-3.1,0.2-6.5,0.7-9.6c0.2-1.3,0.6-2.4,1-3.7c0.4-1.2,0.8-2.7,1.7-3.7
			c1.4-1.7,4.1-2.8,6.1-3.7c0.4-0.2,1.2-0.3,1.5-0.6c0.2-0.2,0.2-0.6,0.3-0.8c0.4-1.1,0.8-2.3,1.2-3.4c1-3,2.1-5.7,3.8-8.4
			c1.9-2.9,3.7-5.8,5.8-8.5c0.8-1,2.1-2.6,3.5-2.7c1.5-0.2,1.8,1.6,1.4,2.7c-0.3,0.9-1.6,1.7-2.3,2.4c-0.8,0.8-1.4,1.6-2.1,2.5
			c-1.7,2.1-3.3,4.4-4.1,7c-0.4,1.1-0.9,2.4-0.7,3.6c2.4-0.7,4.4-3.2,5.9-5.1c0.6-0.8,1.8-2.1,2.8-2.3c1.6-0.3,1.4,1.6,1,2.5
			c-0.6,1.3-1.8,2.3-2.8,3.3c-1.2,1.2-2.4,2.3-3.7,3.3c-1.3,0.9-2.6,1.7-4,2.6c-0.9,0.6-1,1.4-1.3,2.4c-0.3,1.2-0.7,2.5-0.9,3.7
			c-0.3,1.2-0.7,2.8-0.5,4c1.4-0.7,3.2-1.9,4.8-1.8c1.3,0.1,1.8,1,2.6,1.8c1,1,1.4-0.6,1.8-1.4c0.6-1.3,1.2-2.6,2-3.7
			c0.8-1.1,1.7-2,2.2-3.3c0.4-0.9,0.7-1.9,1-2.8c0.4-1.1,0.5-2.2,0.7-3.3c0.1-0.3,0.4-0.8,0.3-1.1c0-0.3-0.3-0.4-0.4-0.6
			c-0.7-1.1-0.2-2.7-0.1-3.9c0.2-2.3,2.7-2.4,3.9-4c1.4-1.8,4-3,5.9-4.1c2.1-1.2,4.1-2.6,6.5-1.5c2,0.9,2.7,3.8,2.2,5.8
			c-0.3,1.3-1.2,2-2.3,2.6c-1.1,0.6-1.3,1.1-1.7,2.2c-1.4,3.5-1.7,7.7-2.1,11.5c-0.9,8.6-0.1,17.1,0.2,25.6c0.1,2.1,0.4,4.5,0,6.5
			c-0.4,1.9-3.1,2.9-4.8,2.4c-2.4-0.7-3.5-3.1-4.9-5c-1.2-1.6-2.2-3.5-3.8-4.6c-0.4,3-0.1,7.7-3,9.5c-1.7,1.1-2.6-1.4-2.7-2.8
			c-0.1-1-0.3-2-0.2-3c0.1-0.7,0.4-1.4,0.6-2.1c0.6-2.2,0.8-4.1,0.6-6.3c-0.2-2-0.6-3.9,0.3-5.8c0.4-0.8,0.8-1.6,1.1-2.5
			c0.3-1,0.9-2.3,0.8-3.4c-0.1-1.2-0.8,0.2-1,0.7c-0.3,0.8,0,1.7-0.3,2.5c-0.3,0.7-1.1,1.2-1.7,1.7c-0.8,0.7-1.4,1.4-2,2.3
			c-0.5,0.6-1.2,1-1.8,1.5c-0.6,0.5-0.8,1.3-1,2c-0.2,0.8-0.3,1.6-1,2.1c-0.7,0.5-1.6,0.5-2.4,0.6c-1.5,0.1-3.6-0.4-3.5-2.3
			c0.1-1.8,1.6-3.7,2.8-5.1c0.4-0.4,1.4-1.4,1.1-2.1c-0.4-0.7-1.6,0-2.1,0.2c-0.8,0.4-1.5,1.1-2.1,1.8c-0.5,0.5-1.5,1.4-1.7,2.1
			c-0.2,0.9,0.8,1.6,1.2,2.3c0.4,0.7,0.2,1.7-0.2,2.5c-0.3,0.7-0.5,1.4-1.2,1.7c-0.9,0.4-1.6,0.1-2.4-0.3c-1.8-1.1-2.2-3-2.2-5
			c0-2.1,0.1-4.1,2.4-4.9c1.1-0.4,3.2-0.7,3.3-2c0.2-1.8,0.3-3.3,0.7-5c0.1-0.5,0.7-2.2,0.4-2.6c-0.2-0.3-1.3,0.3-1.6,0.5
			c-1.6,0.7-3.4,1.4-4.7,2.7c-1.4,1.3-1.6,2.8-1.9,4.6c-0.4,2.7-0.7,5.3-0.7,8.1c0,0.9,0.1,1.9,0.1,2.8c0,0.9-0.4,1.8-0.1,2.6
			c0.3,0.8,1.2,1.1,1.4,1.8c0.3,0.6-0.3,1.8-0.5,2.5c-0.4,1-1,1.6-1.6,2.5c-0.5,0.7-1,1.4-1.9,1c-1.7-0.6-2.7-2.9-3.1-4.5
			c-0.5-2-0.8-4.2-1.1-6.3c-0.3-2.2-0.7-4.4-0.9-6.6c-0.2-3.4,0.3-6.8,0.6-10.2c0.1-0.6,0.2-1.2,0.2-1.8c0-0.7-0.3-1.4-0.5-2.2
			c-0.5-2.2-0.5-4,0-6.2c1-4.4,2.6-8.7,4-13c0.6-1.8,0.8-3-0.3-4.5c-1.1-1.5-1.2-3.2-1.2-5c0-1,0-2-0.2-3
			C19,209.7,18.8,208.9,19.8,208.9z"/>
		<path class="st0" d="M102,250.3c0,0,0.6,0.9,1.2,0.9c0.7,0,1.5-0.1,2.1-0.7c0.6-0.6,2-1.8,3-2.5c0.9-0.7,2.7-2.4,4.2-3.3
			c1.6-0.9,2.5-1.3,3.7-1.4c1.3-0.1,2.3,0,3,0.5c0.7,0.5,1.1,2,1,2.4c-0.1,0.5-0.4,1-1,1.9c-0.4,0.3-2.6,1.7-3.1,1.9
			c-0.4,0.3-1.6,1.7-2,2.2c-0.4,0.5-1.2,1.6-1.2,1.6l-0.1,0.7c0,0,0.6,0.5,1,0.3c0.3-0.1,0.5-0.3,1-0.2c0.5,0.1,0.6,0.4,0.9,0.7
			c0.3,0.3,0.1,1.2,0.1,1.5c0,0.2,0.1,1-0.2,1.1c-0.3,0.1-1.3,0.3-1.3,0.3l-1,0.4l-0.1,0.5l0.6,0.4c0,0,1,0,1.3-0.1
			c0.2-0.1,1,0.1,1,0.1l0.4,0.3c0,0,0.2,1.3,0.1,1.5c-0.1,0.2,0.3,0.5,0.3,0.5l4.2,3.2l1.5,0.8c0,0,1.7,0.1,2.2,0
			c0.4-0.1,0.9-0.4,1-0.6c0.1-0.2-0.1-1,0-1.4c0-0.5,0.1-5.2,0.2-6.4c0.1-1.2,1-19.3,1-19.9c-0.1-0.7-0.3-0.8-0.5-0.9
			c-0.3,0-1,0-1.4,0.2c-0.5,0.2-2.4,1.2-3.1,1.7c-0.7,0.4-9.6,5.2-10.8,5.8c-1.2,0.6-6.5,4.2-7.3,4.5c-0.8,0.4-1.4,0.6-1.5,0.9
			l-0.1,0.2L102,250.3L102,250.3z M91,234.6l0.4-0.4c0,0,4.7-0.5,6.6-0.9c1.9-0.4,2.4-0.9,3.5-1.2c1.2-0.3,3.1-1,3.5-1.3
			c0.4-0.3,1.1-0.7,1.5-1.1c0.3-0.5,0.4-2.6,0.7-3.5c0.3-0.9,0.8-4.4,0.6-6.6c-0.2-2.2,0.1-3.5-0.5-5.4c-0.5-1.9-1.5-2.5-1.2-2.9
			c0.3-0.4,0.8-0.8,1.6-0.8c0.8,0,0.7-0.2,2.5,0.6c1.7,0.8,2.9,1.7,4,3c1.1,1.4,1.6,2.8,1.9,3.8c0.4,1.1,0.1,2.9-0.1,4
			c-0.2,1.1-0.8,3.4-0.8,3.4s1.3-0.1,2.4-0.6c1-0.4,3-0.7,3.8-0.8c0.8-0.1,1.8,1.2,2.4,2c0.6,0.7,0.5,2.1,0.5,2.1l-0.6,0.4
			c0,0-1.8,0.6-2.7,0.9c-0.8,0.2-3.9,2.1-5,2.7c-1.1,0.6-3.7,2.3-4.3,2.8c-0.6,0.4-1.4,1.3-1.4,1.3s-2.3,3-3,3.9
			c-0.7,0.9-2.6,4.2-2.6,4.2s6-3.3,7.2-4.1c1.2-0.7,4-2.5,5.5-3.6c1.5-1.1,4.8-3.3,6.3-4.2c1.5-0.9,3.1-1.9,4.9-2.1
			c1.8-0.2,2.4,0.1,3.1,0.6c0.7,0.5,0.9,0.7,1.2,1.9c0.4,1.1-0.5,3.5-0.9,4.6c-0.4,1-1.1,5.1-1.3,7.8c-0.2,2.6-1,12.3-1,14.5
			c0,2.1-0.3,7.5-0.2,8.7c0,1.2-0.1,2.6-0.4,2.9c-0.3,0.4-1.2,0.9-1.7,1.1c-0.6,0.2-1.3,0.4-1.8,0.2c-0.4-0.2-1.6-1.1-2.6-1.7
			c-1-0.6-2-1.6-2.5-2.1c-0.6-0.5-2.2-2.3-3.6-3.4c-1.4-1.1-2.8-2.1-3.3-2.3c-0.5-0.2-0.9,0-1.1,0.4c-0.2,0.4-0.2,1.2-0.1,2
			c0.1,0.8,0.3,2.6,0.1,3.5c-0.2,0.9-0.8,2.2-1.2,2.6c-0.5,0.4-1.8,1-2.4,1.1c-0.6,0.1-1.2,0.3-1.6,0.1c-0.4-0.3-0.9,0-1.1-1.3
			c-0.2-1.3-0.4-1.7,0.1-2.3c0.4-0.6,0.4-1.3,0.2-1.5c-0.2-0.2-0.6-0.2-0.9,0c-0.3,0.2-0.8,0.6-1.1,0.8c-0.3,0.3-0.6,0.1-1-0.2
			c-0.3-0.2-0.7-1.2-0.6-1.8c0.1-0.7,0.6-2,0.8-2.5c0.3-0.5,0.3-1,0.8-1.1c0.5-0.1,1.3-0.5,1.5-0.7c0.2-0.2,0.2-0.6-0.2-0.8
			c-0.4-0.2-0.8,0-0.8,0s-0.8,0-0.8-0.6c0-0.5-0.7-1.8-0.6-2.2c0.1-0.4,0.4-0.6,0.7-0.8c0.3-0.2,1.2-0.1,1.7-0.6
			c0.4-0.5,3.2-4.5,3.7-5.1c0.5-0.6,2.9-4,2.9-4l0.1-0.7c0,0-0.7-0.3-0.9,0c-0.2,0.2-1.4,1.2-1.8,1.6c-0.4,0.4-1.7,1.7-2.5,2.7
			c-0.7,1-1.5,2.1-2,2.4c-0.5,0.3-1.4,0.7-1.8,0.7c-0.4,0-1.6-0.2-2.1-0.4c-0.6-0.2-1.5-0.6-2-1c-0.6-0.4-1.4-1.1-1.4-1.1l-0.4-0.2
			l-3.5,1.3c0,0-4.6,1.5-5,1.7c-0.5,0.2-1.4,0.7-1.4,0.7s0.2,3.4,0.4,3.7c0.2,0.3,0.9,1.4,1.4,2c0.4,0.6,1.8,5,1.6,6.2
			c-0.1,1.2-0.4,2.4-0.7,2.9c-0.3,0.5-1.1,0.9-1.7,1.1c-0.6,0.2-1.4,0.3-1.9,0c-0.5-0.3-1.1-0.7-1.5-1.4c-0.4-0.8-1-2.3-0.9-3.1
			c0.1-0.8,0.7-4,0.6-5c-0.1-1,0-3,0-3.9c0-0.9,0.3-2.3,0.2-2.7c-0.1-0.4-0.6-1.1-0.4-1.4c0.2-0.3,2.7-1,4-1.5c1.2-0.5,6.7-3.2,8-4
			c1.3-0.8,2.1-1.3,2.1-1.3s2.5-3.7,3.4-4.9c0.8-1.2,1.9-2.9,1.9-2.9s-2.2,0.3-3.1,0.2c-0.8,0-2.2,0.2-2.8,0
			c-0.6-0.2-1.1,0.1-1.6-0.3c-0.5-0.4-1.1-0.9-1.4-1c-0.3-0.2-1.8,0-2.3-0.1c-0.4-0.2-1.2,0.2-1.7-0.4
			C90.7,237.1,90.6,235.2,91,234.6z"/>
	</g>
	<g>
		<path class="st1" d="M47.6,304h-7.3v-1c0.6,0,1.1-0.1,1.4-0.2c0.3-0.1,0.5-0.3,0.6-0.6c0.1-0.2,0.1-0.6,0.1-1v-4.5h-6.9v4.5
			c0,0.6,0.1,1.1,0.4,1.3c0.3,0.3,0.8,0.4,1.8,0.4v1h-7.4v-1c0.6,0,1-0.1,1.4-0.2c0.3-0.1,0.5-0.3,0.6-0.6c0.1-0.2,0.1-0.6,0.1-1
			v-9.4c0-0.4,0-0.7-0.1-1c-0.1-0.2-0.3-0.4-0.6-0.6c-0.3-0.1-0.8-0.2-1.4-0.2v-1h7.4v1c-0.9,0-1.5,0.1-1.8,0.4
			c-0.3,0.3-0.4,0.7-0.4,1.4v3.7h6.9v-3.7c0-0.4,0-0.7-0.1-1c-0.1-0.2-0.3-0.4-0.6-0.6c-0.3-0.1-0.8-0.2-1.4-0.2v-1h7.3v1
			c-0.6,0-1.1,0.1-1.4,0.2c-0.3,0.1-0.5,0.3-0.6,0.6c-0.1,0.2-0.1,0.6-0.1,1v9.4c0,0.4,0,0.7,0.1,1c0.1,0.2,0.3,0.4,0.6,0.6
			c0.3,0.1,0.8,0.2,1.4,0.2V304z"/>
		<path class="st1" d="M64.7,290.1c-0.7,0-1.1,0.1-1.4,0.2c-0.3,0.2-0.5,0.4-0.5,0.7c-0.1,0.3-0.1,0.7-0.1,1.3v5.5
			c0,1,0,1.8-0.1,2.3c-0.1,0.5-0.3,1-0.6,1.5c-0.6,1-1.3,1.7-2.3,2.1c-1,0.4-2,0.6-2.9,0.6c-0.7,0-1.4-0.1-2.1-0.3
			c-0.7-0.2-1.4-0.5-2-0.9c-0.6-0.4-1.1-0.9-1.4-1.6c-0.2-0.4-0.3-0.7-0.4-1.1c-0.1-0.4-0.2-0.7-0.2-1c0-0.3,0-0.8,0-1.3l0-6.2
			c0-0.6-0.1-1.1-0.4-1.4c-0.3-0.3-0.8-0.4-1.8-0.4v-1H56v1c-0.6,0-1.1,0.1-1.4,0.2c-0.3,0.1-0.5,0.3-0.6,0.5
			c-0.1,0.2-0.1,0.6-0.1,1v6.2c0,0.6,0,1.2,0.1,1.7c0.1,0.5,0.2,0.9,0.3,1.3c0.2,0.6,0.7,1.1,1.3,1.4c0.6,0.4,1.3,0.5,2,0.5
			c0.8,0,1.5-0.2,2.1-0.6c0.7-0.4,1.1-0.9,1.4-1.5c0.2-0.5,0.3-1,0.4-1.5c0.1-0.5,0.1-1.1,0.1-1.8v-5.4c0-0.5,0-0.8,0-1.1
			c0-0.2-0.1-0.4-0.2-0.6c-0.1-0.2-0.3-0.3-0.7-0.4c-0.3-0.1-0.7-0.1-1.3-0.1v-1h5.5V290.1z"/>
		<path class="st1" d="M81.8,290.1c-0.7,0-1.2,0.1-1.5,0.2c-0.3,0.1-0.5,0.4-0.6,0.6c-0.1,0.3-0.1,0.7-0.1,1.4v11.8h-1l-9.7-11.6
			v8.2c0,0.6,0,1.1,0.1,1.4c0.1,0.3,0.3,0.5,0.6,0.6c0.3,0.2,0.8,0.2,1.5,0.2v1h-5.5v-1c0.7,0,1.1-0.1,1.4-0.2
			c0.3-0.1,0.5-0.4,0.5-0.6c0.1-0.3,0.1-0.7,0.1-1.4v-7.6c0-0.6,0-1.1,0-1.4c0-0.3-0.1-0.6-0.2-0.8c-0.1-0.2-0.3-0.4-0.6-0.6
			c-0.3-0.1-0.7-0.2-1.2-0.3v-1h4.3l8.5,10v-6.8c0-0.6,0-1-0.1-1.3s-0.3-0.5-0.6-0.7c-0.3-0.2-0.8-0.2-1.4-0.2v-1h5.6V290.1z"/>
		<path class="st1" d="M97,304h-7v-1c0.6,0,1,0,1.3-0.1c0.3-0.1,0.4-0.3,0.4-0.6c0-0.2,0-0.4-0.1-0.7l-0.7-1.8H86l-0.4,1
			c-0.2,0.5-0.3,0.9-0.3,1.2c0,0.4,0.2,0.7,0.5,0.8c0.3,0.1,0.7,0.2,1.2,0.2v1h-5.1v-1c0.4,0,0.8-0.1,1-0.2c0.3-0.2,0.6-0.4,0.8-0.9
			c0.3-0.4,0.5-1,0.8-1.8l4.3-11.2h1l4.5,11.6c0.3,0.8,0.6,1.4,0.7,1.7c0.2,0.3,0.4,0.5,0.6,0.7c0.3,0.2,0.7,0.2,1.1,0.2V304z
			 M90.5,298.8l-2.1-5.2l-2,5.2H90.5z"/>
		<path class="st1" d="M114,290.1c-0.7,0-1.2,0.1-1.5,0.2c-0.3,0.1-0.5,0.4-0.6,0.6c-0.1,0.3-0.1,0.7-0.1,1.4v11.8h-1l-9.7-11.6v8.2
			c0,0.6,0,1.1,0.1,1.4c0.1,0.3,0.3,0.5,0.6,0.6c0.3,0.2,0.8,0.2,1.5,0.2v1h-5.5v-1c0.7,0,1.1-0.1,1.4-0.2c0.3-0.1,0.5-0.4,0.5-0.6
			c0.1-0.3,0.1-0.7,0.1-1.4v-7.6c0-0.6,0-1.1,0-1.4c0-0.3-0.1-0.6-0.2-0.8c-0.1-0.2-0.3-0.4-0.6-0.6c-0.3-0.1-0.7-0.2-1.2-0.3v-1
			h4.3l8.5,10v-6.8c0-0.6,0-1-0.1-1.3c-0.1-0.3-0.3-0.5-0.6-0.7c-0.3-0.2-0.8-0.2-1.4-0.2v-1h5.6V290.1z"/>
		<path class="st1" d="M136.7,290.1c-0.7,0-1.2,0.1-1.5,0.2c-0.3,0.1-0.5,0.4-0.6,0.6c-0.1,0.3-0.1,0.7-0.1,1.4v11.8h-1l-9.7-11.6
			v8.2c0,0.6,0,1.1,0.1,1.4c0.1,0.3,0.3,0.5,0.6,0.6c0.3,0.2,0.8,0.2,1.5,0.2v1h-5.5v-1c0.7,0,1.1-0.1,1.4-0.2
			c0.3-0.1,0.5-0.4,0.5-0.6c0.1-0.3,0.1-0.7,0.1-1.4v-7.6c0-0.6,0-1.1,0-1.4c0-0.3-0.1-0.6-0.2-0.8c-0.1-0.2-0.3-0.4-0.6-0.6
			c-0.3-0.1-0.7-0.2-1.2-0.3v-1h4.3l8.5,10v-6.8c0-0.6,0-1-0.1-1.3c-0.1-0.3-0.3-0.5-0.6-0.7c-0.3-0.2-0.8-0.2-1.4-0.2v-1h5.6V290.1
			z"/>
		<path class="st1" d="M154.7,296.6c0,1.4-0.3,2.6-1,3.8c-0.6,1.2-1.6,2.1-2.9,2.8c-1.3,0.7-2.8,1.1-4.5,1.1c-1.4,0-2.6-0.2-3.7-0.7
			c-1.1-0.5-1.9-1.1-2.6-1.8c-0.7-0.8-1.2-1.6-1.5-2.5c-0.3-0.9-0.5-1.8-0.5-2.7c0-1.3,0.3-2.6,0.9-3.8c0.6-1.2,1.6-2.1,2.8-2.9
			c1.3-0.7,2.7-1.1,4.5-1.1c1.6,0,2.9,0.3,4.1,0.8c1.1,0.5,2,1.2,2.6,2c0.6,0.8,1.1,1.6,1.3,2.5
			C154.6,294.9,154.7,295.8,154.7,296.6z M151.2,296.5c0-0.8-0.1-1.6-0.2-2.4c-0.1-0.7-0.4-1.4-0.8-2c-0.4-0.6-0.8-1.1-1.5-1.4
			c-0.6-0.4-1.4-0.5-2.3-0.5c-1.3,0-2.2,0.3-2.9,0.9c-0.7,0.6-1.2,1.4-1.4,2.4c-0.3,0.9-0.4,2-0.4,3.1c0,0.6,0,1.3,0.1,1.9
			c0.1,0.7,0.3,1.3,0.6,2c0.3,0.7,0.8,1.3,1.5,1.8c0.7,0.5,1.5,0.7,2.6,0.7c1.1,0,1.9-0.2,2.6-0.7c0.7-0.5,1.1-1.1,1.4-1.8
			c0.3-0.7,0.5-1.4,0.6-2C151.1,297.7,151.2,297.1,151.2,296.5z"/>
		<path class="st1" d="M172.4,304h-4c-0.1-0.2-0.3-0.4-0.5-0.7c-0.2-0.3-0.5-0.7-0.7-1.1c-0.3-0.4-0.5-0.8-0.6-1l-1-1.7
			c-0.5-0.7-0.8-1.3-1-1.5c-0.2-0.3-0.5-0.5-0.8-0.5c-0.3-0.1-0.8-0.1-1.5-0.1h-0.6v3.9c0,0.4,0,0.7,0.1,1c0.1,0.2,0.3,0.4,0.6,0.6
			c0.3,0.1,0.8,0.2,1.4,0.2v1h-7.5v-1c0.9,0,1.5-0.1,1.8-0.4c0.3-0.3,0.4-0.7,0.4-1.4v-9.4c0-0.6-0.1-1.1-0.4-1.4
			c-0.3-0.3-0.8-0.4-1.8-0.4v-1l3.4-0.1c0.3,0,0.6,0,0.9,0c0.3,0,0.7,0,1,0c0.2,0,0.6,0,1.1,0c0.7,0,1.4,0.1,2.1,0.1
			c0.6,0.1,1.2,0.2,1.5,0.3c0.5,0.1,1.1,0.4,1.6,0.7c0.5,0.3,0.9,0.7,1.2,1.3c0.3,0.5,0.5,1.1,0.5,1.8c0,0.5-0.1,1-0.3,1.4
			c-0.2,0.5-0.6,0.9-1,1.3c-0.5,0.4-1.1,0.7-1.9,0.9c0.5,0.3,1,0.7,1.4,1.2c0.4,0.5,1,1.3,1.8,2.6c0.5,0.7,0.8,1.2,1.1,1.6
			c0.3,0.4,0.6,0.6,0.8,0.7c0.3,0.1,0.6,0.2,1,0.2V304z M166.3,293.1c0-1.2-0.4-2-1.1-2.4c-0.7-0.4-1.7-0.6-2.8-0.6
			c-0.2,0-0.3,0-0.4,0c-0.1,0-0.2,0-0.3,0v6h0.7c1.1,0,2-0.2,2.8-0.5C165.9,295.2,166.3,294.4,166.3,293.1z"/>
		<path class="st1" d="M193.7,304h-7.5v-1c0.6,0,1.1-0.1,1.4-0.2c0.3-0.1,0.5-0.3,0.6-0.6c0.1-0.2,0.1-0.6,0.1-1v-9.3l-5.6,12.1
			h-0.7l-5.7-12.1v8.9c0,0.5,0,0.8,0,1.1c0,0.2,0.1,0.5,0.3,0.6c0.1,0.2,0.3,0.3,0.6,0.4c0.3,0.1,0.7,0.1,1.2,0.1v1H173v-1
			c0.5,0,0.9,0,1.2-0.1c0.3-0.1,0.5-0.2,0.6-0.4c0.1-0.2,0.2-0.4,0.2-0.6c0-0.2,0-0.6,0-1.1v-8.4c0-0.6,0-1.1-0.1-1.4
			c-0.1-0.3-0.2-0.5-0.5-0.6c-0.3-0.1-0.8-0.2-1.5-0.2v-1h5.4l4.9,10.5l5-10.5h5.3v1c-0.9,0-1.5,0.1-1.8,0.4
			c-0.3,0.3-0.4,0.7-0.4,1.4v9.4c0,0.4,0,0.7,0.1,1c0.1,0.2,0.3,0.4,0.6,0.6c0.3,0.1,0.8,0.2,1.4,0.2V304z"/>
		<path class="st1" d="M209.5,304h-7v-1c0.6,0,1,0,1.3-0.1c0.3-0.1,0.4-0.3,0.4-0.6c0-0.2,0-0.4-0.1-0.7l-0.7-1.8h-4.8l-0.4,1
			c-0.2,0.5-0.3,0.9-0.3,1.2c0,0.4,0.2,0.7,0.5,0.8c0.3,0.1,0.7,0.2,1.2,0.2v1h-5.1v-1c0.4,0,0.8-0.1,1-0.2c0.3-0.2,0.6-0.4,0.8-0.9
			c0.3-0.4,0.5-1,0.8-1.8l4.3-11.2h1l4.5,11.6c0.3,0.8,0.6,1.4,0.7,1.7c0.2,0.3,0.4,0.5,0.6,0.7c0.3,0.2,0.7,0.2,1.1,0.2V304z
			 M203,298.8l-2.1-5.2l-2,5.2H203z"/>
		<path class="st1" d="M223.6,299l-0.1,5h-13.3v-1c0.9,0,1.5-0.1,1.8-0.4c0.3-0.3,0.4-0.7,0.4-1.4v-9.4c0-0.4,0-0.8-0.1-1
			c-0.1-0.2-0.3-0.4-0.6-0.6c-0.3-0.1-0.8-0.2-1.4-0.2v-1h7.5v1c-0.6,0-1.1,0.1-1.4,0.2c-0.3,0.1-0.5,0.3-0.6,0.5
			c-0.1,0.2-0.1,0.6-0.1,1v8.6c0,0.7,0,1.2,0.1,1.4c0.1,0.3,0.2,0.5,0.5,0.7c0.3,0.2,0.8,0.2,1.4,0.2c0.8,0,1.6-0.1,2.2-0.2
			c0.6-0.1,1.2-0.5,1.8-1c0.5-0.6,0.9-1.4,1-2.5H223.6z"/>
		<path class="st1" d="M246.4,290.1c-0.7,0-1.1,0.1-1.4,0.2c-0.3,0.2-0.5,0.4-0.5,0.7c-0.1,0.3-0.1,0.7-0.1,1.3v5.5
			c0,1,0,1.8-0.1,2.3c-0.1,0.5-0.3,1-0.6,1.5c-0.6,1-1.3,1.7-2.3,2.1c-1,0.4-2,0.6-2.9,0.6c-0.7,0-1.4-0.1-2.1-0.3
			c-0.7-0.2-1.4-0.5-2-0.9c-0.6-0.4-1.1-0.9-1.4-1.6c-0.2-0.4-0.3-0.7-0.4-1.1c-0.1-0.4-0.2-0.7-0.2-1c0-0.3,0-0.8,0-1.3l0-6.2
			c0-0.6-0.1-1.1-0.4-1.4c-0.3-0.3-0.8-0.4-1.8-0.4v-1h7.5v1c-0.6,0-1.1,0.1-1.4,0.2c-0.3,0.1-0.5,0.3-0.6,0.5
			c-0.1,0.2-0.1,0.6-0.1,1v6.2c0,0.6,0,1.2,0.1,1.7c0.1,0.5,0.2,0.9,0.3,1.3c0.2,0.6,0.7,1.1,1.3,1.4c0.6,0.4,1.3,0.5,2,0.5
			c0.8,0,1.5-0.2,2.1-0.6c0.7-0.4,1.1-0.9,1.4-1.5c0.2-0.5,0.3-1,0.4-1.5c0.1-0.5,0.1-1.1,0.1-1.8v-5.4c0-0.5,0-0.8,0-1.1
			c0-0.2-0.1-0.4-0.2-0.6c-0.1-0.2-0.3-0.3-0.7-0.4c-0.3-0.1-0.7-0.1-1.3-0.1v-1h5.5V290.1z"/>
		<path class="st1" d="M263.5,290.1c-0.7,0-1.2,0.1-1.5,0.2c-0.3,0.1-0.5,0.4-0.6,0.6c-0.1,0.3-0.1,0.7-0.1,1.4v11.8h-1l-9.7-11.6
			v8.2c0,0.6,0,1.1,0.1,1.4c0.1,0.3,0.3,0.5,0.6,0.6c0.3,0.2,0.8,0.2,1.5,0.2v1h-5.5v-1c0.7,0,1.1-0.1,1.4-0.2
			c0.3-0.1,0.5-0.4,0.5-0.6c0.1-0.3,0.1-0.7,0.1-1.4v-7.6c0-0.6,0-1.1,0-1.4c0-0.3-0.1-0.6-0.2-0.8c-0.1-0.2-0.3-0.4-0.6-0.6
			c-0.3-0.1-0.7-0.2-1.2-0.3v-1h4.3l8.5,10v-6.8c0-0.6,0-1-0.1-1.3c-0.1-0.3-0.3-0.5-0.6-0.7c-0.3-0.2-0.8-0.2-1.4-0.2v-1h5.6V290.1
			z"/>
		<path class="st1" d="M271.8,304h-7.6v-1c0.6,0,1.1-0.1,1.4-0.2c0.3-0.1,0.5-0.3,0.6-0.5c0.1-0.2,0.1-0.6,0.1-1v-9.4
			c0-0.6-0.1-1.1-0.4-1.4c-0.3-0.3-0.9-0.4-1.8-0.4v-1h7.6v1c-0.6,0-1.1,0.1-1.4,0.2c-0.3,0.1-0.5,0.3-0.6,0.5
			c-0.1,0.2-0.1,0.6-0.1,1v9.4c0,0.4,0,0.8,0.1,1c0.1,0.2,0.3,0.4,0.6,0.6c0.3,0.1,0.8,0.2,1.5,0.2V304z"/>
		<path class="st1" d="M289,290.1c-0.4,0-0.7,0.1-0.9,0.1c-0.3,0.1-0.5,0.2-0.6,0.4c-0.2,0.2-0.3,0.4-0.5,0.8
			c-0.2,0.3-0.4,0.8-0.7,1.5l-4.9,11.3h-1l-5.1-11.9c-0.3-0.7-0.6-1.2-0.7-1.5c-0.2-0.3-0.4-0.5-0.7-0.6c-0.3-0.1-0.7-0.2-1.3-0.2
			v-1h7.6v1c-0.7,0-1.2,0.1-1.5,0.2c-0.3,0.1-0.4,0.3-0.4,0.7c0,0.3,0.1,0.7,0.3,1.1l3.4,8l3.2-7.4c0.3-0.6,0.4-1.1,0.4-1.3
			c0-0.5-0.2-0.8-0.5-0.9c-0.3-0.1-0.8-0.2-1.5-0.2v-1h5.5V290.1z"/>
		<path class="st1" d="M303.3,299.1l-0.1,4.9h-13.3v-1c0.9,0,1.5-0.1,1.8-0.4c0.3-0.3,0.4-0.7,0.4-1.4v-9.4c0-0.4,0-0.8-0.1-1
			c-0.1-0.2-0.3-0.4-0.6-0.6c-0.3-0.1-0.8-0.2-1.4-0.2v-1h12.4l0.2,3.9h-1c-0.2-0.9-0.5-1.5-0.8-1.8c-0.3-0.4-0.6-0.6-1-0.7
			c-0.4-0.1-0.9-0.1-1.7-0.1h-2.8v5.3h1.5c0.5,0,0.9,0,1.2-0.1c0.3-0.1,0.4-0.3,0.5-0.5c0.1-0.3,0.2-0.7,0.2-1.2h1.1v5h-1
			c0-0.5-0.1-1-0.2-1.2c-0.1-0.3-0.3-0.4-0.6-0.5c-0.3-0.1-0.6-0.1-1.2-0.1h-1.5v3.5c0,0.6,0,1,0,1.3c0,0.3,0.1,0.5,0.2,0.7
			c0.1,0.2,0.3,0.3,0.6,0.4c0.3,0.1,0.7,0.1,1.2,0.1h1.2c0.5,0,1-0.1,1.4-0.2c0.5-0.1,0.9-0.5,1.3-1c0.4-0.5,0.7-1.4,0.9-2.5H303.3z
			"/>
		<path class="st1" d="M320.8,304h-4c-0.1-0.2-0.3-0.4-0.5-0.7c-0.2-0.3-0.5-0.7-0.7-1.1c-0.3-0.4-0.5-0.8-0.6-1l-1-1.7
			c-0.5-0.7-0.8-1.3-1-1.5c-0.2-0.3-0.5-0.5-0.8-0.5c-0.3-0.1-0.8-0.1-1.5-0.1H310v3.9c0,0.4,0,0.7,0.1,1c0.1,0.2,0.3,0.4,0.6,0.6
			c0.3,0.1,0.8,0.2,1.4,0.2v1h-7.5v-1c0.9,0,1.5-0.1,1.8-0.4c0.3-0.3,0.4-0.7,0.4-1.4v-9.4c0-0.6-0.1-1.1-0.4-1.4
			c-0.3-0.3-0.8-0.4-1.8-0.4v-1l3.4-0.1c0.3,0,0.6,0,0.9,0c0.3,0,0.7,0,1,0c0.2,0,0.6,0,1.1,0c0.7,0,1.4,0.1,2.1,0.1
			c0.6,0.1,1.2,0.2,1.5,0.3c0.5,0.1,1.1,0.4,1.6,0.7c0.5,0.3,0.9,0.7,1.2,1.3c0.3,0.5,0.5,1.1,0.5,1.8c0,0.5-0.1,1-0.3,1.4
			c-0.2,0.5-0.6,0.9-1,1.3c-0.5,0.4-1.1,0.7-1.9,0.9c0.5,0.3,1,0.7,1.4,1.2c0.4,0.5,1,1.3,1.8,2.6c0.5,0.7,0.8,1.2,1.1,1.6
			c0.3,0.4,0.6,0.6,0.8,0.7c0.3,0.1,0.6,0.2,1,0.2V304z M314.6,293.1c0-1.2-0.4-2-1.1-2.4c-0.7-0.4-1.7-0.6-2.8-0.6
			c-0.2,0-0.3,0-0.4,0c-0.1,0-0.2,0-0.3,0v6h0.7c1.1,0,2-0.2,2.8-0.5C314.2,295.2,314.6,294.4,314.6,293.1z"/>
		<path class="st1" d="M332.7,299.7c0,0.5-0.1,1-0.3,1.5c-0.2,0.5-0.5,1-0.9,1.5c-0.4,0.5-0.9,0.9-1.5,1.2c-0.6,0.3-1.3,0.4-2.1,0.4
			c-0.8,0-1.6-0.2-2.4-0.5c-0.8-0.3-1.4-0.9-2-1.5c-0.2,0.5-0.4,1-0.5,1.5h-1v-5.1h1c0.2,0.7,0.4,1.4,0.8,2.1
			c0.3,0.6,0.8,1.2,1.4,1.7c0.6,0.5,1.3,0.7,2.2,0.7c0.7,0,1.3-0.2,1.8-0.6c0.5-0.4,0.7-0.9,0.7-1.5c0-0.4-0.1-0.7-0.2-0.9
			c-0.1-0.3-0.3-0.5-0.6-0.7c-0.3-0.2-0.6-0.4-1.1-0.7c-0.5-0.2-1-0.5-1.6-0.8c-0.9-0.4-1.6-0.9-2.2-1.3c-0.6-0.4-1-0.9-1.3-1.3
			c-0.3-0.4-0.5-0.8-0.6-1.2c-0.1-0.4-0.2-0.7-0.2-1.1c0-0.7,0.2-1.3,0.5-2c0.4-0.6,0.9-1.2,1.6-1.6c0.7-0.4,1.5-0.6,2.4-0.6
			c0.7,0,1.4,0.2,2,0.5c0.6,0.3,1.2,0.7,1.6,1.3c0.1-0.3,0.3-0.7,0.4-1.3h1v4.2h-1c-0.7-2.3-2-3.4-3.8-3.4c-0.7,0-1.2,0.2-1.6,0.5
			c-0.4,0.3-0.6,0.8-0.6,1.3c0,0.4,0.1,0.8,0.4,1.1c0.2,0.3,0.6,0.6,1,0.8c0.4,0.2,1.1,0.6,2,1c1.1,0.5,2,1,2.6,1.4
			c0.6,0.4,1.1,0.9,1.6,1.4C332.5,298.2,332.7,298.9,332.7,299.7z"/>
		<path class="st1" d="M341.6,304h-7.6v-1c0.6,0,1.1-0.1,1.4-0.2c0.3-0.1,0.5-0.3,0.6-0.5c0.1-0.2,0.1-0.6,0.1-1v-9.4
			c0-0.6-0.1-1.1-0.4-1.4c-0.3-0.3-0.9-0.4-1.8-0.4v-1h7.6v1c-0.6,0-1.1,0.1-1.4,0.2c-0.3,0.1-0.5,0.3-0.6,0.5
			c-0.1,0.2-0.1,0.6-0.1,1v9.4c0,0.4,0,0.8,0.1,1c0.1,0.2,0.3,0.4,0.6,0.6c0.3,0.1,0.8,0.2,1.5,0.2V304z"/>
		<path class="st1" d="M357.4,293.3h-1c-0.1-0.9-0.3-1.6-0.6-2c-0.3-0.4-0.6-0.7-1-0.8c-0.4-0.1-0.8-0.2-1.2-0.2h-1.9v10.9
			c0,0.4,0,0.8,0.1,1c0.1,0.2,0.3,0.4,0.6,0.6c0.3,0.1,0.8,0.2,1.4,0.2v1h-7.5v-1c0.9,0,1.5-0.1,1.8-0.4c0.3-0.3,0.4-0.7,0.4-1.4
			v-10.9h-1.6c-0.6,0-1.1,0-1.5,0.1c-0.4,0.1-0.8,0.4-1.1,0.8c-0.3,0.4-0.5,1.1-0.5,2h-1v-4.2h14.7V293.3z"/>
		<path class="st1" d="M373.7,290.1c-0.4,0-0.7,0.1-1,0.3c-0.3,0.2-0.5,0.4-0.8,0.8c-0.3,0.4-0.7,0.9-1.2,1.7l-3.1,4.8v3.5
			c0,0.4,0,0.7,0.1,1c0.1,0.2,0.3,0.4,0.6,0.6c0.3,0.1,0.8,0.2,1.4,0.2v1h-7.5v-1c0.6,0,1.1-0.1,1.4-0.2c0.3-0.1,0.5-0.3,0.6-0.5
			c0.1-0.2,0.1-0.6,0.1-1v-3.3l-3.7-6.2c0,0-0.1-0.1-0.1-0.1c0-0.1-0.1-0.1-0.1-0.1c-0.3-0.5-0.6-0.9-0.9-1
			c-0.3-0.2-0.6-0.3-1.1-0.3v-1h7v1c-0.4,0-0.6,0-0.8,0c-0.2,0-0.4,0.1-0.5,0.2c-0.1,0.1-0.2,0.2-0.2,0.5c0,0.1,0,0.3,0.1,0.5
			c0.1,0.2,0.3,0.6,0.6,1.1l2.3,3.9l2.2-3.5c0.5-0.8,0.7-1.3,0.7-1.7c0-0.5-0.2-0.8-0.5-0.9c-0.3-0.1-0.7-0.2-1.3-0.2v-1h5.4V290.1z
			"/>
	</g>
</g>
<g>
	<g>
		<path class="st1" d="M185.1,125c-0.2,0.2-0.4,0.4-0.5,0.4c-0.2,0.1-0.6,0.4-1.2,0.4l-0.5,0l0,1.4c0.4,0,1.1,0,1.4-0.1
			c0.2,0,0.3-0.1,0.5-0.2v6.7h2.2v-9.2h-1.7C185.3,124.8,185.3,124.9,185.1,125z"/>
		<path class="st1" d="M196.2,124.9c-0.7-0.5-1.4-0.5-1.7-0.5c-1,0-1.7,0.3-2,0.5c-0.3,0.2-0.5,0.5-0.6,0.6
			c-0.7,0.8-0.7,1.7-0.7,2.1c0,0.5,0.1,0.9,0.2,1.1c0.4,1,1.3,1.7,2.4,1.7c1,0,1.6-0.5,1.8-0.8c0-0.1,0.1-0.1,0.2-0.3
			c0,1-0.1,1.4-0.3,1.9c-0.1,0.4-0.2,0.7-0.6,0.9c-0.2,0.1-0.4,0.1-0.5,0.1c-0.1,0-0.3,0-0.5-0.2c-0.3-0.3-0.3-0.7-0.3-0.9l-2.2,0.2
			c0,0.2,0.1,0.5,0.2,0.9c0.3,0.6,0.9,1.6,2.6,1.6c1.2,0,1.9-0.4,2.3-0.8c0.3-0.3,0.6-0.6,0.7-1c0.6-1.2,0.5-3,0.5-3.2
			C197.7,126.7,197.1,125.5,196.2,124.9z M194.4,128.9c-0.2,0-0.4-0.1-0.5-0.1c-0.4-0.1-0.7-0.5-0.7-1.3c0-0.8,0.2-1.2,0.6-1.3
			c0.2-0.1,0.4-0.1,0.5-0.1c0.1,0,0.4,0,0.6,0.2c0.2,0.2,0.4,0.6,0.4,1.3C195.4,128.5,194.9,128.9,194.4,128.9z"/>
		<path class="st1" d="M205.7,129.2c-0.2-0.1-0.5-0.2-0.7-0.2c0.1,0,0.5-0.2,0.8-0.5c0.6-0.5,0.7-1.3,0.7-1.6c0-0.7-0.2-1.1-0.4-1.3
			c-0.6-0.9-1.6-1.2-2.6-1.2c-1.6,0-2.3,0.6-2.7,1.2c-0.4,0.7-0.5,1.3-0.5,1.6l2.1,0.2c0-0.3,0-0.7,0.2-0.9c0.2-0.4,0.6-0.4,0.7-0.4
			c0.4,0,0.7,0.2,0.9,0.6c0.1,0.2,0.1,0.4,0.1,0.5c0,0.5-0.3,1-0.8,1.1c-0.2,0-0.6,0-0.6,0l0,1.6c0.1,0,0.3,0,0.4,0
			c1.1,0,1.2,0.7,1.2,1.2c0,0.2,0,1-0.7,1.3c-0.2,0.1-0.4,0.1-0.5,0.1c-0.1,0-0.4,0-0.7-0.2c-0.5-0.4-0.5-1-0.5-1.2
			c0-0.1,0-0.2,0-0.3l-2.1,0.2c0,0.1,0,0.7,0.1,1.3c0.2,0.7,0.6,1,0.8,1.2c0.8,0.7,1.9,0.7,2.2,0.7c0.1,0,0.5,0,0.9-0.1
			c0.2,0,0.7-0.1,1.1-0.4c0.9-0.5,1.4-1.4,1.4-2.4C206.7,130.3,206.4,129.5,205.7,129.2z"/>
		<path class="st1" d="M214,128.9c0.3-0.2,0.4-0.2,0.6-0.4c0.7-0.6,0.7-1.3,0.7-1.6c0-1.7-1.2-2.2-1.8-2.4c-0.5-0.1-0.9-0.1-1.1-0.1
			c-1.6,0-2.3,0.8-2.6,1.4c-0.2,0.4-0.3,0.9-0.3,1.1c0,0.4,0.1,1.2,0.9,1.8c0.1,0.1,0.2,0.1,0.4,0.3c-0.2,0.1-0.4,0.2-0.6,0.3
			c-0.4,0.2-1,0.8-1,1.9c0,1.1,0.6,1.8,0.9,2.1c0.8,0.7,2.1,0.7,2.3,0.7c1.8,0,2.7-0.9,3-1.6c0.2-0.4,0.2-0.7,0.2-1.1
			c0-0.3,0-1-0.6-1.6C214.9,129.4,214.6,129.2,214,128.9z M212.4,126c0.9-0.1,0.9,1.1,0.9,1.2c0,0.8-0.5,1-0.9,1
			c-0.7,0-0.8-0.5-0.8-0.7c0-0.2-0.1-0.4-0.1-0.4C211.6,126.6,211.8,126.1,212.4,126z M213,132.1c-0.1,0.1-0.3,0.1-0.6,0.1
			c-0.4,0-0.8-0.3-0.9-0.7c-0.1-0.3-0.1-0.5-0.1-0.6c0-0.7,0.3-1.1,0.6-1.2c0.1,0,0.3-0.1,0.5-0.1c0.4,0,0.9,0.4,0.9,1.3
			C213.5,131.7,213.3,132,213,132.1z"/>
		<path class="st1" d="M200,2c-52.2,0-94.7,42.5-94.7,94.7c0,52.2,42.5,94.7,94.7,94.7c52.2,0,94.7-42.5,94.7-94.7
			C294.7,44.5,252.2,2,200,2z M200,186.8c-49.7,0-90.1-40.4-90.1-90.1c0-49.7,40.4-90.1,90.1-90.1c49.7,0,90.1,40.4,90.1,90.1
			C290.1,146.4,249.7,186.8,200,186.8z"/>
		<path class="st1" d="M200,8.8c-48.5,0-87.9,39.5-87.9,87.9c0,48.5,39.4,87.9,87.9,87.9c48.5,0,87.9-39.4,87.9-87.9
			C287.9,48.2,248.5,8.8,200,8.8z M200,183.2c-47.7,0-86.5-38.8-86.5-86.5c0-47.7,38.8-86.5,86.5-86.5c47.7,0,86.5,38.8,86.5,86.5
			C286.5,144.4,247.7,183.2,200,183.2z"/>
		<path class="st1" d="M146.2,96.7c0,12.2,4.1,23.4,10.9,32.4l0.1,0.2l0.2,0.2l0.2,0.2l0.2,0.2l0.2,0.2l0.1,0.1
			c2.4,3,5.2,5.8,8.2,8.2l0.1,0.1l0.1,0.1l0.1,0.1l0.1,0.1l0.1,0.1l0.2,0.1l0.2,0.1l0.2,0.1l0.1,0c0.9,0.7,1.8,1.3,2.7,1.9l0.1,0.1
			l0.1,0.1l0.2,0.1l0.2,0.1l0.2,0.1l0.2,0.1l0.2,0.1l0.2,0.1l0,0c3.1,2,6.4,3.6,9.9,4.9l0.1,0l0.1,0.1l0.1,0.1l0.2,0.1l0.2,0
			l0.2,0.1l0.2,0l0.2,0l0,0c1.3,0.5,2.6,0.9,4,1.2l0.1,0l0.2,0.1l0.2,0l0.1,0l0.1,0l0.1,0c1.4,0.4,2.9,0.7,4.4,0.9l0,0l0.2,0.1
			l0.2,0.1l0.2,0l0.2,0l0.2,0h0.2l0.2,0c1.6,0.2,3.2,0.3,4.9,0.4l0,0l0,0c0.7,0,1.3,0.1,2,0.1c9.6,0,18.6-2.5,26.4-6.9h0.1l0.1-0.1
			l0.1-0.1l0.1-0.1l0.1-0.1l0.1-0.1c1.2-0.7,2.4-1.5,3.6-2.3l0.1,0l0.2-0.1l0.2-0.1l0.2-0.1l0.2-0.1l0.1-0.1l0.2-0.1l0.2-0.2
			c1.2-0.9,2.3-1.8,3.4-2.8l0.1-0.1l0.2-0.1l0.1-0.1l0.1-0.1l0.1-0.1l0.1-0.1l0.1-0.1l0.1-0.1l0.2-0.2c1.2-1.1,2.3-2.2,3.3-3.3
			l0.1-0.1l0.2-0.2l0.2-0.2l0,0c8.4-9.5,13.5-21.9,13.5-35.6c0-12.9-4.5-24.7-12.1-33.9l0-0.1l-0.1,0c-9.4-11.5-23.5-19-39.3-19.7
			l0,0l-0.3,0l-0.1,0c-0.6,0-1.3,0-1.9,0C170.3,42.9,146.2,67,146.2,96.7z M200,46.8c0.6,0,1.2,0,1.7,0l0.1,0l0.3,0l0,0
			c14.7,0.6,27.7,7.6,36.5,18.3l0.1,0l0,0.1c7,8.6,11.2,19.5,11.2,31.5c0,12.6-4.7,24.2-12.5,33l0,0l-0.2,0.2l-0.2,0.2l-0.1,0.1
			c-1,1.1-2,2.1-3.1,3.1l-0.1,0.2l-0.1,0.1l-0.1,0.1l-0.1,0.1l-0.1,0.1l-0.1,0.1l-0.1,0.1l-0.2,0.1l-0.1,0.1c-1,0.9-2.1,1.8-3.2,2.6
			l-0.2,0.2l-0.1,0.1l-0.1,0.1l-0.2,0.1l-0.2,0.1l-0.2,0.1l-0.2,0.1l-0.1,0c-1.1,0.7-2.2,1.4-3.3,2.1l-0.1,0.1l-0.1,0.1l-0.1,0.1
			l-0.1,0.1l-0.1,0.1h-0.1c-7.2,4.1-15.6,6.4-24.5,6.4c-0.6,0-1.2,0-1.8,0l0,0l0,0c-1.5-0.1-3-0.2-4.5-0.4l-0.2,0h-0.2l-0.2,0
			l-0.2,0l-0.2,0l-0.2-0.1l-0.2-0.1l0,0c-1.4-0.2-2.7-0.5-4-0.8l-0.1,0l-0.1,0l-0.1,0l-0.2,0l-0.1-0.1l-0.1,0
			c-1.3-0.3-2.5-0.7-3.7-1.1l0,0l-0.2,0l-0.1,0l-0.1,0l-0.1,0l-0.1-0.1l-0.1-0.1l-0.1-0.1l0,0c-3.2-1.2-6.3-2.8-9.2-4.6l0,0
			l-0.2-0.1l-0.2-0.1l-0.2-0.1l-0.2-0.1l-0.1-0.1l-0.1-0.1l-0.1-0.1l-0.1-0.1c-0.9-0.6-1.7-1.2-2.5-1.8l-0.1,0l-0.2-0.1l-0.2-0.1
			l-0.1-0.1l-0.1-0.1l-0.1-0.1l-0.1-0.1l-0.1-0.1l-0.1-0.1c-2.8-2.3-5.3-4.8-7.6-7.6l-0.1-0.1l-0.2-0.2l-0.2-0.2l-0.2-0.2l-0.2-0.2
			l-0.1-0.2c-6.3-8.4-10.1-18.8-10.1-30.1C150.1,69.2,172.5,46.8,200,46.8z"/>
		<path class="st1" d="M178.6,116c0,0,8.2-15,22.8-16.6c14.7-1.6,13.8,12.4,12.6,16.6h17.1c0,0,2.1-11.2-4.2-22.2
			c-7.1-12.3-26.5-13-41-2.1c0,0,3.9-7.1,1.1-13.9c-1.2-3-3.6-5.4-6.6-6.6c-2.4-1-5.8-1.5-9.6,0.4c0,0,3.8,6.8-0.2,18
			c-4,11.2-11.6,23.3-14.5,26.4H178.6z"/>
		<path class="st1" d="M189.7,77.6c0,0,1.4,4.5-0.5,9.9c0,0,14.2-12,30.8-4.7c14.6,6.4,13.9,27.2,13.9,27.2h3.7
			c0,0,1-20.3-11.9-28.6c-12.4-8-26.4-2.1-33.6,1.9c0,0,3.5-10.6-4.6-16.2c0,0-5.4-4-12.6-1.5l1.2,2.7
			C176.2,68.3,187,66.4,189.7,77.6z"/>
		<path class="st1" d="M194.1,70.1c0,0,1.9,5.4,0.3,10.5c0,0,13.7-10.6,30.5-3.7c12,4.9,15.2,19.2,15.2,27h3.8
			c0,0,0.1-22.6-16.3-29.8c-13.6-5.9-26.6,0.5-30.7,2.9c0,0,3-9.4-3.8-15.2c-1.3-1.1-4.7-4.2-13.3-2.5l1,3.2
			C180.7,62.6,190.5,60.4,194.1,70.1z"/>
		<g>
			<path class="st0" d="M141.5,64.4c0.8,0.4,1.7,0.8,2.5,1.2c0.5,0.2,1.1,0.7,1.6,0.7c0.4,0,0.9-0.5,1.3-0.7c0.4-0.3,1-0.4,1.3-0.8
				c0.4-0.4,0.2-0.5-0.2-0.6c-1.2-0.3-2.3-0.8-3.5-1.2c-0.8-0.3-1.6-0.7-2.4-1c0,0.4,0.1,1,0,1.4C142.1,63.7,141.7,64.1,141.5,64.4z
				 M137.4,61.6c0,0.2,0.4,0.6,0.7,0.5c0.2-0.1,0-0.3-0.1-0.4C137.8,61.5,137.6,61.4,137.4,61.6z M134.9,56.8
				c0.8,0.8,1.6,1.5,2.5,2.1c0.7,0.5,1.4,0.9,2.1,1.4c0.2,0.1,0.6,0.3,0.7,0.5c0.1,0.1,0,0.5,0,0.6c-0.6-0.4-1.2-0.9-1.7-1.4
				c-0.1-0.1-0.2-0.3-0.4-0.3c-0.2-0.1-0.5,0.1-0.7,0.1c-0.2,0.1-0.4,0.2-0.5,0.4c-0.1,0.1-0.3,0.4-0.4,0.5
				c-0.6,0.3-1.4-1.3-1.5-1.7C134.8,58.4,134.5,57.3,134.9,56.8z M121.6,68.4c0.3-1,0.8-1.9,1.7-2.3c0.8-0.4,2.2-0.6,2.8,0.2
				c0.2,0.3,0.3,0.9,0.1,1.2c-0.1,0.3-0.2,0.5,0,0.7c0.1,0.1,0.3,0.3,0.4,0.4c0.4,0.3,0.7,0.6,1.1,0.8c0.4,0.3,0.7,0.8,1.1,1.2
				c0.2,0.2,0.3,0.5,0.5,0.7c0.2,0.2,0.4,0.4,0.7,0.5c0.5,0.3,0.9,0.3,1.5,0.3c0.4,0,0.8-0.1,1.3-0.1c0.2,0,0.4,0,0.7-0.1
				c0.4-0.1,0.4,0,0.6,0.3c0.5,0.7,1,1.3,1.7,1.9c0.6,0.5,1.4,0.9,2.1,1.3c1,0.5,2.1,0.9,3.1,1.3c0.4,0.2,1,0.5,1.5,0.5
				c0.5-0.1-0.1-0.4-0.3-0.5c-0.6-0.3-1.2-0.4-1.9-0.7c-1.1-0.5-2.2-1.1-3.2-1.7c-0.4-0.3-0.8-0.6-1.1-0.9c-0.4-0.3-0.8-0.7-1-1.2
				c-0.4-0.8-0.3-1.9-0.3-2.7c0-0.2,0.1-0.5,0-0.6c0-0.1-0.2-0.2-0.2-0.2c-0.3-0.3-0.7-0.6-1-0.9c-0.9-0.8-1.7-1.6-2.3-2.6
				c-0.7-1.1-1.4-2.2-2-3.4c-0.2-0.4-0.6-1.2-0.4-1.7c0.2-0.5,0.8-0.4,1.2-0.1c0.3,0.3,0.3,0.8,0.5,1.2c0.2,0.4,0.3,0.8,0.5,1.1
				c0.5,0.9,1,1.8,1.8,2.5c0.3,0.3,0.7,0.7,1.1,0.8c0.1-0.9-0.5-2-0.9-2.9c-0.2-0.3-0.5-1-0.4-1.3c0.1-0.6,0.8-0.2,1,0
				c0.4,0.4,0.5,1,0.7,1.5c0.2,0.6,0.4,1.2,0.6,1.8c0.1,0.6,0.2,1.2,0.3,1.8c0.1,0.4,0.3,0.6,0.6,0.8c0.4,0.3,0.7,0.6,1.1,0.9
				c0.4,0.3,0.8,0.7,1.3,0.8c0-0.6-0.2-1.4,0.1-2c0.2-0.4,0.6-0.4,1-0.6c0.5-0.2,0-0.6-0.2-0.8c-0.3-0.4-0.7-0.8-1-1.3
				c-0.3-0.4-0.4-0.9-0.8-1.3c-0.3-0.3-0.6-0.5-0.8-0.8c-0.3-0.3-0.7-0.5-1-0.8c-0.1-0.1-0.2-0.3-0.3-0.3c-0.1,0-0.2,0-0.3,0.1
				c-0.5,0.1-1-0.4-1.4-0.6c-0.8-0.4-0.4-1.3-0.8-2c-0.4-0.8-0.4-1.8-0.5-2.7c-0.1-0.9-0.3-1.8,0.5-2.5c0.6-0.6,1.7-0.3,2.4,0.1
				c0.4,0.3,0.5,0.7,0.6,1.2c0,0.5,0.2,0.6,0.5,1c1,1,2.4,1.8,3.7,2.5c2.8,1.7,5.9,2.7,8.9,3.9c0.7,0.3,1.6,0.6,2.3,1
				c0.6,0.5,0.5,1.5,0.1,2c-0.6,0.7-1.6,0.7-2.5,0.9c-0.7,0.2-1.6,0.2-2.2,0.6c1,0.6,2.7,1.2,2.9,2.5c0.1,0.8-0.9,0.7-1.4,0.5
				c-0.4-0.1-0.8-0.2-1.1-0.4c-0.2-0.2-0.4-0.4-0.6-0.5c-0.7-0.6-1.3-0.9-2.1-1.2c-0.7-0.3-1.4-0.4-2-1c-0.2-0.3-0.4-0.5-0.7-0.8
				c-0.3-0.3-0.7-0.7-1.1-0.8c-0.4-0.1,0,0.3,0.1,0.5c0.2,0.2,0.6,0.2,0.8,0.5c0.2,0.2,0.2,0.6,0.3,0.9c0.1,0.4,0.3,0.7,0.5,1
				c0.2,0.3,0.2,0.6,0.3,0.8c0.1,0.3,0.3,0.5,0.5,0.7c0.2,0.2,0.5,0.3,0.6,0.7c0.1,0.3-0.1,0.7-0.2,0.9c-0.2,0.5-0.7,1.2-1.3,0.9
				c-0.6-0.3-1-1.2-1.3-1.8c-0.1-0.2-0.3-0.7-0.6-0.7c-0.3,0-0.3,0.5-0.2,0.8c0,0.4,0.2,0.7,0.3,1c0.1,0.2,0.2,0.7,0.5,0.9
				c0.3,0.2,0.7,0,1-0.1c0.3,0,0.6,0.2,0.8,0.4c0.2,0.2,0.4,0.4,0.4,0.7c0,0.4-0.2,0.6-0.5,0.8c-0.7,0.5-1.4,0.3-2.1,0
				c-0.7-0.3-1.4-0.7-1.3-1.6c0-0.4,0.2-1.2-0.2-1.5c-0.6-0.3-1.1-0.6-1.6-1c-0.1-0.1-0.7-0.6-0.9-0.6c-0.2,0-0.1,0.5-0.1,0.6
				c0,0.7,0,1.4,0.2,2c0.2,0.7,0.7,1,1.3,1.4c0.9,0.6,1.7,1.1,2.7,1.5c0.3,0.1,0.7,0.3,1,0.4c0.3,0.1,0.6,0.4,0.9,0.4
				c0.3,0,0.6-0.2,0.8-0.2c0.3,0,0.6,0.4,0.8,0.6c0.3,0.3,0.4,0.6,0.6,0.9c0.2,0.3,0.3,0.6,0.1,0.8c-0.5,0.5-1.4,0.5-2,0.4
				c-0.8-0.1-1.6-0.4-2.3-0.6c-0.8-0.2-1.6-0.4-2.4-0.7c-1.2-0.5-2.3-1.2-3.5-1.8c-0.2-0.1-0.4-0.3-0.6-0.3
				c-0.3-0.1-0.6-0.1-0.8-0.2c-0.8-0.2-1.5-0.4-2.2-1c-1.4-1-2.6-2.2-3.9-3.4c-0.5-0.5-0.9-0.7-1.6-0.6c-0.7,0.1-1.3-0.1-1.9-0.4
				c-0.3-0.2-0.7-0.3-1.1-0.4C121.8,68.7,121.5,68.7,121.6,68.4z"/>
			<path class="st0" d="M156,44.3c0,0,0.4,0.1,0.6,0c0.2-0.1,0.4-0.4,0.5-0.7c0-0.3,0.2-1,0.3-1.5c0.1-0.4,0.3-1.3,0.5-2
				c0.3-0.6,0.5-0.9,0.8-1.3c0.4-0.3,0.7-0.5,1-0.5c0.3,0,0.8,0.4,0.8,0.5c0.1,0.2,0.1,0.4,0.1,0.8c-0.1,0.2-0.4,1.1-0.5,1.3
				c-0.1,0.2-0.1,0.9-0.1,1.1c0,0.3,0,0.8,0,0.8l0.1,0.2c0,0,0.3,0,0.4-0.1c0.1-0.1,0.1-0.2,0.3-0.3c0.2-0.1,0.3,0,0.4,0
				c0.2,0,0.3,0.3,0.4,0.4c0.1,0.1,0.2,0.3,0.2,0.4c-0.1,0.1-0.3,0.4-0.3,0.4l-0.2,0.3l0.1,0.2l0.3,0c0,0,0.3-0.2,0.4-0.3
				c0.1-0.1,0.3-0.2,0.3-0.2l0.2,0c0,0,0.4,0.4,0.4,0.4c0,0.1,0.2,0.1,0.2,0.1l2,0.1l0.6-0.1c0,0,0.6-0.3,0.7-0.5
				c0.1-0.1,0.2-0.3,0.2-0.4c0-0.1-0.2-0.3-0.3-0.4c-0.1-0.1-1.1-1.6-1.4-2c-0.2-0.4-4-6.2-4.2-6.4c-0.2-0.2-0.3-0.2-0.4-0.1
				c-0.1,0.1-0.3,0.2-0.4,0.4c-0.1,0.2-0.5,0.9-0.6,1.2c-0.1,0.3-1.8,3.8-2,4.2c-0.2,0.5-1,2.7-1.2,3c-0.2,0.3-0.3,0.5-0.3,0.6
				l0,0.1L156,44.3L156,44.3z M149.1,41.9l0-0.2c0,0,1.3-1.2,1.8-1.8c0.5-0.6,0.5-0.8,0.8-1.2c0.3-0.3,0.7-1,0.8-1.2
				c0.1-0.2,0.2-0.5,0.2-0.7c0-0.2-0.4-0.9-0.6-1.2c-0.1-0.4-0.7-1.6-1.3-2.2c-0.6-0.6-0.8-1.1-1.4-1.5c-0.6-0.4-1-0.4-1-0.6
				c0-0.2,0.1-0.4,0.3-0.6c0.3-0.2,0.2-0.2,0.9-0.4c0.7-0.1,1.3-0.1,1.9,0c0.7,0.2,1.1,0.5,1.5,0.7c0.3,0.2,0.7,0.9,0.9,1.2
				c0.2,0.4,0.5,1.2,0.5,1.2s0.4-0.3,0.6-0.7c0.2-0.4,0.8-0.9,1-1.1c0.2-0.2,0.8,0,1.2,0.1c0.3,0.1,0.7,0.5,0.7,0.5l-0.1,0.3
				c0,0-0.4,0.6-0.6,0.9c-0.2,0.3-0.7,1.5-0.9,2c-0.2,0.4-0.6,1.5-0.7,1.8c-0.1,0.3-0.1,0.7-0.1,0.7s0,1.4,0,1.9
				c0,0.4,0.2,1.9,0.2,1.9s1.1-2.4,1.3-2.9c0.2-0.5,0.7-1.7,0.9-2.3c0.2-0.7,0.7-2.1,1-2.7c0.3-0.6,0.5-1.3,1-1.8
				c0.5-0.5,0.8-0.5,1.1-0.5c0.3,0,0.4,0,0.8,0.3c0.4,0.3,0.6,1.2,0.7,1.6c0.1,0.4,0.8,1.8,1.3,2.7c0.5,0.8,2.5,4,3,4.7
				c0.5,0.7,1.6,2.4,1.9,2.7c0.3,0.4,0.5,0.8,0.5,1c0,0.2-0.2,0.5-0.3,0.7c-0.1,0.2-0.3,0.4-0.5,0.5c-0.2,0-0.7,0-1.2,0
				c-0.4,0-1-0.1-1.3-0.1c-0.3,0-1.2-0.2-1.9-0.2c-0.7,0-1.3,0-1.5,0c-0.2,0.1-0.3,0.2-0.2,0.4c0,0.2,0.2,0.4,0.4,0.6
				c0.2,0.2,0.7,0.7,0.8,1.1c0.1,0.3,0.2,0.8,0.2,1.1c0,0.2-0.3,0.7-0.5,0.9c-0.2,0.2-0.3,0.4-0.5,0.4c-0.2,0-0.3,0.2-0.6-0.2
				c-0.4-0.4-0.5-0.4-0.5-0.7c0-0.3-0.2-0.5-0.3-0.5c-0.1,0-0.2,0.1-0.3,0.2c0,0.1-0.1,0.4-0.2,0.5c0,0.2-0.2,0.2-0.3,0.2
				c-0.2,0-0.5-0.2-0.6-0.4c-0.1-0.2-0.3-0.8-0.3-1c0-0.2-0.1-0.4,0-0.5c0.1-0.2,0.3-0.5,0.3-0.6c0-0.1-0.1-0.2-0.2-0.2
				c-0.2,0-0.2,0.2-0.2,0.2s-0.3,0.2-0.4,0c-0.1-0.2-0.6-0.4-0.7-0.5c-0.1-0.2,0-0.3,0.1-0.4c0.1-0.1,0.4-0.3,0.4-0.5
				c0-0.2,0-2.1,0-2.4c0-0.3,0-1.9,0-1.9l-0.1-0.2c0,0-0.3,0.1-0.3,0.2c0,0.1-0.2,0.7-0.2,0.9c0,0.2-0.1,0.9-0.2,1.4
				c0,0.5,0,1-0.1,1.2c-0.1,0.2-0.3,0.5-0.4,0.6c-0.1,0.1-0.5,0.3-0.8,0.3c-0.2,0.1-0.6,0.1-0.9,0.1c-0.3,0-0.7,0-0.7,0l-0.2,0
				l-0.8,1.2c0,0-1.1,1.5-1.2,1.7c-0.1,0.2-0.3,0.5-0.3,0.5s0.8,1,0.9,1.1c0.1,0.1,0.6,0.2,0.9,0.3c0.3,0.1,1.7,1.1,1.9,1.5
				c0.2,0.4,0.4,0.8,0.4,1c0,0.2-0.1,0.5-0.3,0.7c-0.2,0.2-0.4,0.4-0.6,0.4c-0.2,0-0.5,0-0.8-0.1c-0.3-0.1-0.8-0.5-1-0.7
				c-0.2-0.3-0.7-1.4-0.9-1.7c-0.2-0.3-0.7-0.9-0.9-1.2c-0.2-0.3-0.4-0.8-0.6-0.9c-0.1-0.1-0.4-0.2-0.4-0.3c0-0.2,0.6-0.9,0.9-1.3
				c0.3-0.4,1.3-2.5,1.5-3c0.2-0.5,0.3-0.9,0.3-0.9s-0.1-1.7-0.1-2.3c0-0.5-0.1-1.3-0.1-1.3s-0.6,0.6-0.9,0.8
				c-0.3,0.2-0.6,0.6-0.9,0.6c-0.2,0.1-0.3,0.3-0.6,0.3c-0.2,0-0.5,0-0.7,0c-0.1,0-0.6,0.4-0.7,0.5c-0.2,0-0.3,0.3-0.6,0.3
				C149.6,42.8,149.1,42.2,149.1,41.9z"/>
			<g>
				<path class="st1" d="M176.6,29.5c0.1,0,0.3-0.1,0.3-0.2c0.3-0.2,0.7-1.1,1.5-3.3c0.3-0.8,0.6-1.5,0.7-1.8c0.2-0.5,0.6-1.5,1-2.6
					c0.4-1,0.8-2.1,1-2.7c0.2-0.5,0.5-0.9,0.8-1.3c0.3-0.4,0.5-0.7,0.5-1c0.1-0.6-0.4-1.2-1-1.4c-0.3-0.1-2.1-0.5-2.7-0.4
					c-0.1,0-0.2,0.1-0.3,0.2c-0.1,0.2-0.1,0.4,0,0.6c0.1,0.4,0.4,0.5,0.6,0.6c0.1,0.1,0.3,0.1,0.5,0.2c0.3,0.2,0.3,0.4,0.2,1.1
					l0,0.2c-0.1,0.4-0.4,1.3-0.7,2.2c-0.3,0.8-0.5,1.6-0.6,2c-0.1,0.4-0.7,2-1.2,3.4c-0.8,2.2-1.2,3.1-1.2,3.4c0,0.1,0,0.4,0.2,0.6
					C176.4,29.5,176.5,29.5,176.6,29.5z"/>
				<path class="st1" d="M178.8,27.9c0,0.1,0.1,0.3,0.3,0.3h0c0.4,0,0.8-0.4,1.4-0.8c0.4-0.3,0.8-0.6,1.1-0.7c0,0.3-0.2,0.9-0.2,1.2
					c0,0.1-0.1,0.2-0.1,0.3c0,0.2,0,0.3,0.2,0.5c0.3,0.3,1,0.3,1.4,0.2c0.4-0.1,0.8-0.4,1.1-0.6c0.1-0.1,0.2-0.2,0.3-0.2
					c0.2-0.1,0.2-0.3,0.2-0.3c0-0.3-0.3-0.4-0.8-0.7c-0.3-0.1-0.8-0.4-0.8-0.5c0-0.2,0.5-0.8,0.7-1.2c0.3-0.4,0.6-0.8,0.7-1.1
					c0.1-0.4,0.2-0.8-0.1-1.1c-0.2-0.2-0.6-0.3-1.1-0.3C181.8,23,178.7,27.3,178.8,27.9z"/>
				<path class="st1" d="M178.7,34.8c0.1,0.3,1.1,2.3,1.9,2.3c0,0,0.1,0,0.1,0c0.2-0.1,0.4-0.2,0.6-0.4c0.3-0.4,0.6-1,0.6-1.5
					c-0.1-0.6-0.6-2-1-2.4c-0.3-0.3-0.5-0.6-0.7-1c0-0.1-0.1-0.2-0.1-0.3c-0.2-0.5-0.5-1.1-0.9-1.3c-0.1,0-0.2,0-0.3,0
					c-0.2,0.1-0.2,0.3-0.3,0.4l0,0c-0.1,0.1,0,0.2,0,0.3c0.4,1,0.5,1.6,0.5,1.9c0,0.1-0.1,0.3-0.1,0.4
					C178.7,33.6,178.5,34.1,178.7,34.8z"/>
				<path class="st1" d="M184.2,28.8c-0.5,0.1-1.5,0.7-1.8,1.1c-0.2,0.3-0.7,0.7-0.8,0.7c-0.2,0.1-0.3,0.3-0.3,0.5
					c0,0.2,0.1,0.4,0.2,0.6c0.2,0.1,0.4,0.1,0.7,0c0.3,0,0.6-0.1,0.8,0c0,0.1-0.2,0.5-0.3,0.7c-0.1,0.2-0.3,0.4-0.3,0.5
					c-0.1,0.4,0,1.1,0.2,1.3c0.1,0.2,0.6,0.6,1.9,0.3c0.5-0.1,1.1-0.7,1-4.5l0-0.1c0-0.5-0.1-0.8-0.3-1c-0.3-0.2-0.6-0.1-0.9-0.1
					L184.2,28.8z"/>
				<path class="st1" d="M186.8,22.3c0.4,0,0.9-0.1,1-0.1c0,0,0.1,0.2,0.1,0.3c0,0.1,0,0.1,0.1,0.2c-0.1,0.1-0.2,0.3-0.2,0.5
					c0,0.1,0,0.2-0.1,0.2c-0.1,0.4,0.3,0.9,0.7,1c0,0,0.1,0.2-0.1,0.8c-0.1,0.3,0,0.7,0,1.2c-0.3,0.6-1.4,2.1-1.6,2.3
					c-0.3,0.2-0.7,0.6-0.7,1c0,0.3,0,0.4,0.2,0.6c0.2,0.2,0.4,0.1,0.6,0.1c0,0,0,0,0.1,0c0.3-0.1,0.7-0.6,0.7-0.7
					c0.1-0.2,0.2-0.3,0.2-0.4c0.2-0.3,0.7-1.4,0.8-1.6c0,0,0,0,0,0l0.3,1c0,0.1,0.1,0.3,0.1,0.6c0,0.3,0.1,0.6,0.1,0.7
					c0,0.1,0,0.2,0,0.3c0,0.2-0.1,0.4,0,0.6c0,0.1,0.1,0.3,0.1,0.5c0,0.2,0.1,0.5,0.1,0.8c0.1,0.3,0.1,0.7,0.2,1.2
					c0,0.3,0.1,0.6,0.1,0.8c0.1,0.3,0.1,0.6,0.1,0.9c0,0.2,0,0.5,0.1,0.6c0,0.2,0.1,0.6,0.2,1c0.1,0.3,0.1,0.5,0.1,0.7
					c0.1,0.4,0.5,1.2,0.5,1.2c0.8,1.7,1.1,1.8,1.3,1.7c0,0,0,0,0.1,0c0.4-0.1,0.6-1,0.6-1.5c0-0.3,0-0.8,0.1-1
					c0.1-0.2,0-0.6-0.3-1.4c-0.1-0.4-0.3-0.8-0.3-1c0-0.3-0.3-1.2-0.6-2.2c-0.1-0.4-0.2-0.7-0.3-0.8c-0.1-0.2-0.1-0.9-0.2-1.4
					c-0.1-0.5-0.1-0.9-0.2-1.1c0-0.1-0.1-0.3-0.1-0.6c0,0,0,0,0,0c0.2,0.1,0.4,0.1,0.6,0c0.3-0.1,0.6-0.3,0.9-0.7
					c0.4-0.5,2.4-4.7,2.4-5.8c0-0.9-0.3-1-0.8-1.1c-0.1,0-0.2,0-0.3-0.1c-0.8-0.2-3.4,1.9-3.5,2c0,0,0,0-0.1,0.1
					c0,0-0.1-0.1-0.1-0.1c-0.4-0.3-0.6-0.4-0.8-0.6c-0.1-0.1-0.1-0.1-0.1-0.2c0-0.1-0.1-0.2-0.3-0.3c0.2-0.3,0.7-0.8,1.5-1.7
					c0.7-0.9,1.7-2.1,1.9-2.2c0.5-0.3,0.5-1.1,0.3-1.5c-0.1-0.2-0.2-0.3-0.3-0.3c-0.3-0.1-0.6,0-1.3,0.3c-0.9,0.4-4.7,3.6-5,4l0,0
					c-0.2,0.3-0.3,0.6-0.2,0.9c0,0.1,0.1,0.2,0.3,0.3C185.8,22.4,186.1,22.4,186.8,22.3z M190.4,25.5c0-0.1,0-0.2,0-0.4
					c0.3-0.4,0.4-0.6,0.4-0.6c0.1-0.2,0.6-0.8,1-1.1c0.1-0.1,0.7-0.4,1.1-0.6c0,0.2,0,0.6-0.1,0.9c-0.2,0.5-1.7,3.8-1.9,4.1
					c-0.1,0-0.3,0-0.6-0.2c0-0.1,0-0.2,0-0.2C190.3,26.9,190.4,25.7,190.4,25.5z"/>
				<path class="st1" d="M214.8,22.5c0.4,0.1,1.1,0,1.1,0c0.4-0.1,0.5-0.6,0.6-1c0-0.1,0-0.3,0.1-0.3c0-0.1,0.1-0.1,0.3-0.2
					c0.1-0.1,0.3-0.1,0.4-0.2c0.1-0.1,0.2-0.2,0.2-0.3c0-0.2-0.1-0.3-0.3-0.5c-0.1-0.1-0.1-0.1-0.2-0.2c-0.1-0.1-0.1-0.1,0.1-0.3
					c0.1-0.1,0.1-0.2,0.2-0.3c0.2-0.4,0.6-1.7,0.6-2v0c0-0.2-0.1-0.3-0.2-0.4c-0.3-0.1-0.5,0.1-0.8,0.3l-0.1,0.1
					c-0.2,0.1-0.5,0.5-0.7,0.8c-0.2,0.2-0.3,0.4-0.4,0.5l-0.3,0.3c-0.3,0.3-0.7,0.7-0.8,0.9l0,0.1c-0.2,0.3-0.5,0.9-0.5,1.4
					c0,0.6,0.4,1.2,0.5,1.4C214.6,22.4,214.7,22.5,214.8,22.5z"/>
				<path class="st1" d="M219.2,20.4c0.2,0.1,0.5,0.3,0.9,0.8c0.3,0.5,0.4,0.9,0.4,1.2c0,0,0,0,0,0.1h0c0,0,0,0,0,0.1
					c0,0.1,0,0.1,0,0.2c0,0,0,0,0,0c0,0,0,0,0,0.1c0,0.2,0.1,0.3,0.1,0.3c0,0,0.1,0,0.1,0.1c0.2,0.1,0.5,0,0.8-0.1
					c0.2-0.1,0.5-0.2,0.8-0.2c0.3,0,0.5-0.1,0.6-0.3c0.2-0.3,0.2-0.7,0.1-0.9c0,0,0-0.1,0-0.1c0-0.2-0.1-0.5,0.1-0.8
					c0.1-0.2,0.2-0.2,0.6-0.1c0.2,0,0.4,0,0.7,0c0.2,0,0.5-0.1,0.8-0.1c0.3-0.1,0.8-0.2,1.2-0.2c-0.2,0.3-0.4,0.7-0.6,0.7
					c-0.4,0.2-1.9,1-2,1c-0.1,0-0.1,0.1-0.1,0.2c0,0.1,0,0.4,0.1,0.6c0.1,0.1,0.2,0.2,0.3,0.2c0.1,0,0.2,0,0.8-0.2
					c0.5-0.2,1.3-0.4,2.1-0.6c1-0.2,1.9-0.3,2.7-0.4c0.4,0,0.7-0.1,0.9-0.1c0.3-0.1,0.4-0.3,0.5-0.4c0.2-0.7-1.3-2.1-1.4-2.2
					c-0.4-0.3-1-0.1-1.3,0.1c-0.3,0.2-0.9,0.3-1,0.3c-0.2-0.1-1.3-0.2-2.3,0.2c-1,0.3-2.5,0.3-2.7,0.2c-0.1,0-0.4-0.2-0.7-0.4
					c-0.3-0.2-0.6-0.4-0.9-0.5c-0.2-0.1-0.6-0.1-0.9,0.1c-0.4,0.2-0.7,0.5-0.8,0.8C218.8,20.2,219.1,20.3,219.2,20.4z"/>
				<path class="st1" d="M207.5,35.5C207.6,35.5,207.6,35.5,207.5,35.5c0.5,0.2,1.3,0,2.7-0.5c0.2-0.1,0.4-0.1,0.5-0.1
					c0.2-0.1,0.5-0.1,0.9-0.1c0,0,0,0.1,0,0.2c-0.1,0.3-0.1,0.8-0.3,1c-0.1,0.1-0.3,0.3-0.6,0.5c-0.4,0.3-0.9,0.6-1,1.1
					c-0.1,0.3-0.1,2.1,0.2,2.4c0.1,0.1,0.2,0.1,0.3,0.2c0.2,0.1,0.4,0.1,0.7,0c0.4-0.1,0.8-0.6,1.1-1c0.1-0.1,0.2-0.3,0.3-0.4
					c0.1-0.1,0.2-0.3,0.3-0.7c0.1-0.2,0.2-0.5,0.4-0.9c0.4-1,1.1-2.1,1.3-2.4c0-0.1,0.1-0.1,0.1-0.2c0.5-0.1,1.5-0.4,1.9-0.4
					c0.5,0,0.9-0.2,1.2-0.5c0.2-0.3,0.2-0.6,0.1-1c-0.2-0.7-0.1-1.3,0-1.5c0.3-0.3,0.3-0.8,0.3-0.8c0-0.1-0.1-0.2-0.2-0.2
					c-0.1,0-0.3-0.1-0.3-0.2c0,0,0-0.1,0-0.1c0,0,0.1,0,0.1-0.1l0.1,0c0.9-0.5,2.1-1.2,2.6-1.9c0.2-0.3,0.2-0.5,0.1-0.7
					c-0.2-0.5-1-0.7-1.4-0.8c-0.1,0-0.4,0-0.8,0c0-0.1,0.1-0.2,0.1-0.3c0.2,0,0.4-0.1,0.5-0.1c0.3-0.1,0.5-0.4,0.5-1.1
					c0-0.1,0-0.2-0.1-0.3c0-0.1-0.1-0.1-0.2-0.1c0.3-0.6,0.3-0.7,0.3-0.9c0-0.2,0-0.6-0.7-0.8c-0.5-0.2-0.7,0.3-0.7,0.5
					c0,0,0,0.1-0.1,0.1l-0.1,0.1c-0.1,0.2-0.2,0.3-0.3,0.7c0,0,0,0,0,0.1c-0.4,0-0.9,0.2-1.1,0.3c-0.2,0.1-0.4,0.4-0.5,0.8
					c-0.1,0.3,0.2,0.5,0.5,0.6c-0.1,0.2-0.2,0.3-0.3,0.5c0,0,0,0,0,0c-0.1,0-0.2,0.1-0.2,0.1c-0.3,0.2-1,0.4-1.6,0.6
					c-0.5,0.2-0.8,0.3-0.9,0.3c-0.1,0-0.1,0.1-0.1,0c0,0-0.1,0-0.1-0.1c0-0.1,0-0.1,0-0.1c0.1-0.4-0.2-0.4-0.4-0.5
					c-0.3-0.1-0.5,0-0.6,0.1c-0.3,0.2-0.4,0.6-0.4,0.7c-0.1,0.2-0.3,0.8-0.3,1.2c0,0.2,0.1,0.3,0.2,0.4c0.2,0.1,0.5,0.1,0.7,0
					c0.1,0,0.2,0,0.2-0.1c0.5-0.1,1.7-0.6,2.6-1.1c0,0,0,0.1,0,0.1c0,0.1-0.1,0.3-0.3,0.5c-0.1,0.1-0.3,0.1-0.5,0.2
					c-0.3,0.1-0.5,0.1-0.7,0.3c-0.1,0.2-0.1,0.5-0.1,0.8c0,0.2,0,0.4,0,0.6c-0.1,0.2-0.8,0.4-1.2,0.6c-0.3,0.1-0.6,0.2-0.7,0.3
					c-0.1,0.1-0.3,0.2-0.5,0.3c-1.4,0.7-1.5,0.8-1.4,1c0,0,0.1,0.1,0.1,0.1c0.1,0,0.1,0,0.2,0c0.5-0.1,1.2-0.3,1.9-0.6
					c0.4-0.1,0.9-0.3,1.2-0.4c-0.1,0.2-0.2,0.5-0.4,0.9c0,0-0.1,0-0.1,0.1c-0.2,0.2-2.7,0.7-3.3,0.6c0,0,0,0-0.1,0
					c0-0.1,0.1-0.1,0.2-0.2c0.1,0,0.1-0.1,0.1-0.2c0-0.1,0-0.1,0-0.2c-0.1-0.1-0.2-0.2-0.5-0.2c-0.6,0.1-1.5,0.8-1.8,1.2
					C206.8,34.5,207,35.1,207.5,35.5z M217.4,28.3c0-0.1,0.1-0.2,0.2-0.3c0.1-0.2,0.2-0.4,0.3-0.6c0.4-0.1,0.8-0.1,1,0
					c0,0,0,0.3-0.5,0.7C218.1,28.2,217.7,28.3,217.4,28.3C217.3,28.3,217.3,28.3,217.4,28.3z M215,32.3c0.2-0.5,0.4-0.9,0.7-1.2
					c0.1-0.1,0.2-0.3,0.4-0.6c0.1,0,0.2-0.1,0.2-0.1c0,0.2,0,0.4-0.1,0.6c0,0.3-0.3,1.1-0.8,1.3c-0.1,0-0.3,0-0.5,0.1
					C215,32.4,215,32.4,215,32.3z"/>
				<path class="st1" d="M225,28.4c-0.9,0.3-2.8,2.5-3,3.1c-0.2,0.6,0.4,1.8,0.9,2c0,0,0,0,0,0c0.3,0.1,0.5,0,0.8,0
					c0.1,0,0.2,0,0.3,0c0.3,0,0.4-0.2,0.4-0.3c0.1-0.2-0.1-0.6-0.5-1c-0.1-0.1-0.2-0.2-0.2-0.2c-0.2-0.2-0.3-0.3-0.2-0.7
					c0.1-0.3,1-0.7,1.8-1c1.2-0.5,2.5-1.1,3.2-1.9c0.1-0.2,0.2-0.3,0.1-0.5c-0.1-0.4-0.7-0.8-1.3-1c-0.6-0.2-1.6,0-2.2,0.1
					c-0.1,0-0.2,0-0.3,0.1l0,0c-0.2,0-0.6,0.1-0.6,0.4c0,0.3,0.4,0.4,0.5,0.5c0.3,0.1,0.6,0.1,0.8,0c0.2,0,0.4-0.1,0.5,0
					C225.8,27.9,225.5,28.2,225,28.4z"/>
				<path class="st1" d="M228.9,35.8c0-0.6-0.1-2.1-0.1-2.2c0-0.1,0-0.1-0.1-0.2c0,0-0.2-0.2-0.5-0.1c-0.1,0-0.2,0.1-0.3,0.4
					c-0.1,0.5-0.1,0.8-0.1,1.2c0,0.4-0.4,1.7-1.1,3.6c-0.1,0.3-0.6,0.6-1,0.4c-0.3-0.1-1.3-0.3-2.2-0.5c-0.7-0.1-1.3-0.2-1.5-0.3
					c-0.1,0-0.3-0.1-0.5-0.1c-0.5-0.1-1.7-0.3-1.8-0.6c-0.1-0.4,0.4-2,0.6-2.2c0.1-0.1,0.9-1.1,0.9-1.8c0-0.3,0.7-2.3,1-3.2
					c0.1-0.3,0.2-0.5,0.2-0.7c0-0.1,0-0.2-0.1-0.3c-0.1-0.1-0.2,0-0.3,0c-1.3,1.2-1.4,1.3-1.5,1.4c0,0,0,0,0,0.1
					c-0.3,0.3-0.6,0.8-0.9,1.2c-0.3,0.4-0.5,0.8-0.7,1c-0.7,0.8-1.5,2.8-1.5,3.6c0,0.1,0,0.3,0,0.4c-0.1,0.9-0.1,1.3,1.5,2.4
					c0.1,0.1,0.4,0.2,0.6,0.3c0.6,0.2,1.6,0.5,2.7,0.8c0.9,0.2,1.8,0.5,2.5,0.7c1.8,0.6,2.8,0.6,3.3,0.2c0.5-0.5,0.6-1.5,0.5-2.3
					c-0.1-0.4,0.1-1.3,0.2-2C228.8,36.5,228.9,36,228.9,35.8z"/>
				<path class="st1" d="M234.7,47.9c0.7,0.6,1.7,1.1,2.2,1.3l0.2,0.1c0.9,0.3,1.9,0.6,3.7,0.3c1.1-0.2,4-1.8,5.2-2.5
					c0.2-0.1,0.4-0.2,0.5-0.2c0.1-0.1,0.4-0.3,0.8-0.5c0.3,0.2,0.6,0.3,0.9,0.4c0.3,0.1,0.6,0.1,0.9,0.1c0.3,0,0.6,0,0.7,0.1
					c0.2,0.1,0.5,0.3,0.9,0.5c0.4,0.2,0.8,0.4,1,0.6c0.4,0.4,2.2,0.6,3.2,0.3c0.4-0.1,0.7-0.3,0.8-0.5c0.1-0.4-0.2-0.7-0.5-1
					c-0.1-0.1-0.2-0.2-0.3-0.3c-0.2-0.2-0.1-1.2,0-1.5c0.1-0.2,0-0.4-0.1-0.4c0,0,0,0,0,0c-0.2-0.2-0.7,0-0.8,0
					c-0.3,0.1-0.3,0.5-0.4,1.1c0,0.2-0.1,0.3-0.1,0.5c-0.1,0.4-0.3,0.4-0.3,0.4c0,0-1.2-0.2-2.5-0.6c-0.6-0.2-1.2-0.4-1.8-0.7
					c0.4-0.3,0.8-0.6,1-0.8c0.6-0.5,3.4-2.6,4.3-3c0.9-0.4,2.7-2,3.4-2.7c0.9-0.9,0.2-3.7,0.1-4c0-0.1-0.1-0.1-0.1-0.2
					c-0.1-0.1-0.3-0.1-0.5,0c-0.3,0.1-0.5,0.6-0.6,0.7c-0.1,0.2-0.9,1.2-1.3,1.7c-0.5,0.5-3.5,3.8-4.5,4.8c-0.4,0.4-2.3,1.9-3.3,2.7
					c-0.3-0.1-0.6-0.2-0.7-0.3c-1-0.3-6.2-2.2-6.5-2.4c-0.1-0.1-0.2-0.2-0.2-0.4c-0.1-0.1-0.2-0.3-0.3-0.4l0,0
					c-0.1-0.1-0.4-0.2-0.6-0.2c-0.2,0.1-0.3,0.3-0.3,0.4c0,0,0,0.1-0.1,0.1c-0.2,0.4-0.1,1.4,0,1.6c0,0.1,0.1,0.2,0.2,0.2
					c0.2,0.1,0.4,0.3,0.6,0.3c0.1,0,1.1,0.3,1.9,0.5c0.9,0.3,1.8,0.5,2.1,0.6c0.5,0.1,1.8,0.6,2.5,0.8c-0.3,0.2-0.8,0.5-1.3,0.8
					c-0.6,0.3-2.5,1.1-4.2,1.3c-1.9,0.2-3.9-0.3-4.5-0.6c-0.7-0.4-0.7-0.6-0.7-0.8c0-0.1,0-0.3-0.1-0.5c-0.3-0.4-0.5-0.4-0.6-0.4
					c-0.1,0-0.1,0-0.2,0.1c0,0-0.6,0.5-0.3,1.4C234,47.2,234.3,47.5,234.7,47.9z"/>
				<path class="st1" d="M246.7,47.5c-0.1-0.2-0.3-0.2-0.3-0.2c-0.3,0-0.3,0.4-0.5,0.7c-0.1,0.4-0.7,1.9-0.9,2.4
					c0,0.1-0.1,0.3-0.2,0.5c-0.4,1.1-1.3,3.2-1.4,3.9c-0.1,0.9,0.1,1.8,0.6,2.2c0,0,0,0,0,0c0.5,0.5,4.1,0.8,4.6,0.8
					c0.3,0,0.5-0.1,0.6-0.2c0.1-0.1,0.1-0.2,0.1-0.3c0,0,0-0.1-0.1-0.1c0,0-1.3-1-2-1.8c-0.5-0.6-0.6-5.1-0.5-7.9
					C246.8,47.6,246.7,47.6,246.7,47.5z"/>
				<path class="st1" d="M281.3,73c0,0,0-0.1,0-0.1c-0.1-0.2-0.1-0.4-0.4-0.5c-0.1,0-0.2,0-0.4,0.1c-0.1,0-0.2,0.1-0.3,0.2
					c-0.1,0.1-0.2,0.2-0.4,0.2c-0.2,0-1,0-1.9,0c-1.1,0-2.3,0-2.4-0.1c-0.1,0-1,0-2.2,0c-0.9,0-1.7,0-1.9,0c0,0-0.1,0-0.2,0
					c-0.1-0.2-0.2-0.3-0.2-0.4c0-0.1,0.3-0.2,0.5-0.2c0.1,0,0.1,0,0.2-0.1c0,0,0,0,0,0c0.2,0,0.4,0.1,0.4,0.1c0.3,0.1,0.8,0.1,2-0.1
					c0.9-0.2,1.5-0.5,1.3-1.9c0-0.2-0.1-0.4-0.2-0.5c0.2,0.1,0.6,0.4,1.1,0.6c0.4,0.2,0.7,0.4,0.9,0.5c0.4,0.2,1.9,1.1,2.2,1.2
					c0.5,0.2,0.8,0.3,1,0.1c0,0,0.1-0.1,0.1-0.3c0-0.1-0.1-0.4-5.3-3.6c0,0,0,0,0,0c0.2-0.1,1,0.3,1.5,0.6c0.7,0.3,1.3,0.7,1.8,0.7
					c0.1,0,0.2,0,0.3-0.1c0.5-0.4,0.6-2.1,0.6-2.4c0,0,0,0,0-0.1c0-0.1,0-0.1,0-0.1c0-0.2-0.1-0.2-0.3-0.4c-0.3-0.2-0.6,0.1-0.8,0.4
					c-0.1,0-0.4,0.1-0.7,0c-0.1,0-0.4,0-0.6,0c-0.5,0-1.1-0.1-1.5-0.2c-0.3-0.1-0.6-0.1-1,0c0,0,0,0,0,0l-0.1-0.2
					c0.2-0.3,0.8-1.1,0.8-1.5c0-0.3,0.1-1.1,0.2-1.7c0.1-0.5,0.2-1,0.2-1.2c0-0.2-0.1-0.9-0.4-1c-0.2,0-0.3,0.1-0.3,0.4
					c-0.3,0.9-0.8,1.8-0.9,1.8c0,0-1.7,0.7-1.8,1c0,0,0,0.1,0,0.1c0,0.1-0.1,0.2-0.3,0.3c-0.3,0.1-0.6,0.3-0.9,0.5
					c-0.2,0.1-0.5,0.3-0.6,0.3c0,0,0,0-0.1,0c-0.1,0-0.1-0.1-0.2-0.1c-0.2-0.1-0.6-0.1-0.9-0.1c0,0-0.2,0.1-0.8,0
					c-0.2,0-0.3,0-0.3,0c0,0,0-0.1,0-0.1c0-0.1,0-0.2,0-0.3c0-0.1,0.1-0.2,0.6-0.4c0.3-0.1,0.5-0.6,0.7-0.9l0.1-0.1
					c0.1-0.2,0.1-0.6,0.1-0.9c0-0.1,0-0.2,0-0.2c0-0.2-0.1-0.3-0.2-0.3c-0.2-0.1-0.5,0.1-0.7,0.2c0,0-0.2,0.2-0.4,0.4
					c0,0-0.1,0.1-0.2,0.2c-0.1,0.2-0.3,0.4-0.5,0.5c-0.1,0-1.4,0.3-1.8,0.7c-0.3,0.3-0.5,1.1-0.4,1.5c0,0,0,0.1,0,0.1
					c0.1,0.3,0.4,0.3,0.6,0.3c0,0,0.1,0,0.1,0c0.1,0.1,0.3,0.1,0.5,0.1c0.2,0,0.5,0,0.8,0.1c0.3,0,0.3,0.1,0.4,0.2
					c0.1,0.1,0.2,0.2,0.5,0.3c0.3,0.1,0.6,0.1,0.9,0.2c0.1,0,0.3,0,0.3,0.1c0.2,0.1,1,0.3,1,0.2l2.5,1.1l0,0c0,0,0,0,0,0.1
					c-0.3,0-0.7-0.1-0.8-0.1c-0.1-0.1-0.4-0.1-0.6-0.2c0-0.1-0.1-0.2-0.1-0.2c-0.1-0.2-0.3-0.4-0.5-0.4c-0.1,0-0.2,0.1-0.3,0.1
					c0,0-0.2,0.2-0.3,0.4c-0.3,0-0.5,0-0.7-0.1c-0.9,0-2.2-0.4-2.4-0.5l-3.4-1.7c-0.2-0.1-3.7-1.7-4.8-2c-0.6-0.2-1.2,0.1-1.6,0.7
					c-0.3,0.4-0.4,0.9-0.2,1.3c0,0.1,0.1,0.2,0.2,0.3c0.4,0.5,1.6,0.9,2.6,1.2c0.5,0.2,0.9,0.3,1.2,0.5c0.1,0,0.2,0.1,0.3,0.2
					c0.7,0.3,2.1,0.9,3.4,1.8c1.5,1,3.1,2.4,3.8,3.1c0.2,0.2,0.3,0.3,0.4,0.4c0.2,0.5,0.7,1,1,1.3c0.2,0.2,0.5,0.3,0.7,0.3
					c0.2,0.4,0.9,1.2,1.1,1.4c0.1,0.1,0.2,0.5,0.2,0.5c0,0-0.1,0.1-0.1,0.2c-0.1,0.1-0.1,0.1-0.1,0.2c-0.3-0.2-2-1.2-2.5-1.5
					c-0.8-0.6-3-2.3-3.3-2.6c-0.3-0.3-0.6-0.3-0.8-0.3c-0.1-0.1-0.2-0.4-0.3-0.8c-0.1-0.2-0.2-0.4-0.3-0.6c0-0.1-0.2-0.3-0.6-0.1
					c-0.4,0.1-0.7,0.4-0.7,0.7c0,0.2,0.1,0.4,0.3,0.7c0.1,0.2,0.2,0.6,0.3,0.7c-0.2,0.1-1.1,0.5-1.6,0.5c-0.1,0-0.2,0-0.2-0.1
					c-0.2-0.2-0.6-0.7-1.1-1.3c-0.5-0.5-1-1.1-1.4-1.6c-0.7-0.8-4.6-4.3-5.5-3.9c-0.1,0-0.4,0.2-0.5,1.9c0,0,0,0.1,0,0.1
					c-0.1,0.3-0.4,1.2-0.5,1.8c-0.2,0.7-0.3,2.4-0.2,3.1c0.1,0.7,0.1,3.1,0.1,3.5c0,0.1,0,0.3,0.1,0.4c0.1,0.4,0.5,0.6,0.8,0.7
					c0.6,0.3,1.9-0.6,2.2-0.9c0.1-0.2,1-0.6,1.4-0.8c0.2-0.1,0.3-0.2,0.4-0.2c0.1-0.1,0.3-0.1,0.6-0.2c0.3-0.1,0.6-0.1,0.9-0.2
					c0.2-0.1,0.4-0.2,0.6-0.3c0.2-0.1,0.6-0.3,0.8-0.3c0.2,0.3,0.7,1.6,1.1,2.4c0.2,0.6,0.4,1,0.5,1.2c0.2,0.5,0.7,0.4,1,0.3l0.2,0
					c0.5-0.1,0.6-0.6,0.7-1.1c0-0.1,0.1-0.2,0.1-0.3c0-0.1,0.1-0.2,0.1-0.3c0.1-0.2,0.1-0.3,0-0.6c-0.1-0.3-0.6-0.9-1-1
					c-0.3-0.1-0.4-0.2-0.6-0.6c-0.2-0.4,0-0.6,0.1-0.6c0.1,0,0.1-0.1,0.1-0.1c0.1-0.1,0.2-0.2,0.6-0.1c0.5,0.1,0.7,0.1,0.9,0.2
					l0.1,0c0.5,0.1,0.7-0.2,0.7-0.7c0,0,0-0.1,0-0.1c0,0,0.1,0,0.2,0c0.2,0.2,1.4,1.3,1.6,1.5c0.1,0.1,0.5,0.4,1,0.7
					c0.3,0.2,0.7,0.4,0.7,0.5c0.2,0.2,2.5,1.4,3,1.6c0,0,0.1,0,0.1,0c0.1,0.1,0.1,0.1,0.2,0.1c0.1,0,0.2-0.1,0.2-0.1c0,0,0,0,0,0
					c0.1,0,0.2,0,0.2,0l0.1-0.1c0.2-0.2,0.4-0.4,0.4-0.7c0,0,0-0.1,0-0.1c0-0.2,0.1-0.4-0.1-0.7c-0.2-0.3-0.4-0.7-0.9-1
					c-0.3-0.2-0.4-0.4-0.4-0.6l0,0c0,0,0,0,0-0.1c0.4,0.1,1.3,0.2,1.5,0.2c0.3,0,4.1-0.2,4.5-0.2c0.4,0.1,0.8,0,1.1-0.1
					c0.1,0,0.2-0.1,0.2-0.1c0.1,0,0.9,0.2,1.2,0l0.1,0c0.3-0.1,0.6-0.3,0.7-0.5l0-0.1C281.4,73.3,281.4,73.2,281.3,73z M274.1,70.3
					c0.1,0.1,0.2,0.2,0.3,0.3c0,0,0,0,0,0c-0.1,0.1-0.6,0.2-1.2,0.2c0,0,0,0,0.1-0.1C273.5,70.6,273.8,70.4,274.1,70.3z M271.4,66.6
					c-0.2-0.2-0.5-0.4-0.5-0.4c0,0,0-0.1-0.1-0.1c0.7-0.3,1.3-0.5,1.4-0.5c0.2,0.2,0.3,0.4,0.4,0.6c-0.1,0.2-0.2,0.4-0.1,0.5
					c0,0.1,0.1,0.2,0.3,0.2c0.2,0,0.5,0.1,0.5,0.2c0,0,0,0.1,0.1,0.1c-0.1,0.1-0.1,0.2-0.2,0.3L271.4,66.6z M269.5,71.8
					c-0.5-0.5-2.1-2-4.1-3.3c-0.9-0.6-1.9-1.1-2.8-1.6c-1.2-0.7-2.8-1.6-2.9-1.9c0.8-0.1,5.5,2.2,7,3c0.1,0,0.2,0.1,0.3,0.1
					c0,0.1-0.1,0.2,0.1,0.4c0.2,0.3,0.4,0.5,0.6,0.7c0.2,0.2,0.4,0.5,0.6,0.7c0.3,0.4,0.6,0.7,1,0.9c0.2,0.2,0.4,0.4,0.6,0.6
					c0,0,0.1,0.1,0.1,0.1C269.8,71.6,269.7,71.7,269.5,71.8z M270.2,70.3c-0.7-0.4-1.4-1.5-1.7-1.9c0.4,0.1,0.8,0.2,1.1,0.3
					c0.1,0.1,0.3,0.1,0.5,0.2c0,0.1,0,0.1,0,0.2c0,0.1,0,0.2,0.1,0.3c0,0.1,0.1,0.3,0.1,0.4c0.2,0.5,0.5,0.7,0.7,0.7
					c0.4,0,0.6-0.7,0.6-0.8c0-0.1,0-0.2,0-0.4c0.2,0,0.4,0.1,0.6,0.1c0.3,0.1,0.7,0.2,0.9,0.3c-0.6,0.4-0.8,0.5-0.9,0.6
					c-0.1,0.1-0.5,0.2-0.9,0.3C270.9,70.6,270.4,70.4,270.2,70.3z M259.5,74l-0.1,0c-0.6,0.2-2.4,0.7-3.4,1.2
					c-0.6,0.3-0.9,0.3-1,0.3c-0.1,0-0.1-0.1-0.2-0.3l-0.1-0.2c-0.2-0.7-0.8-2.7-0.9-3.5c-0.1-0.7,0.3-2.3,0.5-2.9
					c0.1,0.1,0.3,0.3,0.6,0.6c0.1,0.1,0.2,0.3,0.3,0.3c0.2,0.2,0.4,0.3,0.7,0.5c0.1,0.1,0.3,0.2,0.4,0.3c0.5,0.3,1.1,0.8,1.6,1.2
					c0.7,0.6,1.3,1.3,1.6,1.6c0.3,0.4,0.4,0.6,0.5,0.7L259.5,74z"/>
			</g>
		</g>
	</g>
	<g>
		<path class="st1" d="M125.8,108.7l-0.4-4.5l0.6-0.1c0,0.4,0.1,0.6,0.2,0.8c0.1,0.2,0.2,0.3,0.4,0.3c0.2,0,0.4,0,0.6,0l2.7-0.3
			l-0.4-4.2l-2.7,0.3c-0.4,0-0.6,0.1-0.8,0.3c-0.2,0.2-0.2,0.5-0.1,1.1l-0.6,0.1l-0.4-4.5l0.6-0.1c0,0.4,0.1,0.6,0.2,0.8
			c0.1,0.2,0.2,0.3,0.4,0.3c0.2,0,0.4,0,0.6,0l5.7-0.6c0.3,0,0.5-0.1,0.6-0.1c0.1-0.1,0.2-0.2,0.3-0.4c0.1-0.2,0.1-0.5,0-0.9
			l0.6-0.1l0.4,4.5l-0.6,0.1c-0.1-0.6-0.2-0.9-0.4-1c-0.2-0.1-0.5-0.2-0.8-0.2l-2.2,0.2l0.4,4.2l2.2-0.2c0.3,0,0.5-0.1,0.6-0.1
			c0.1-0.1,0.2-0.2,0.3-0.4c0.1-0.2,0.1-0.5,0-0.9l0.6-0.1l0.4,4.5l-0.6,0.1c0-0.4-0.1-0.7-0.2-0.8c-0.1-0.2-0.2-0.3-0.4-0.3
			c-0.1,0-0.4,0-0.6,0l-5.7,0.6c-0.2,0-0.4,0.1-0.6,0.1c-0.1,0.1-0.2,0.2-0.3,0.4c-0.1,0.2-0.1,0.5,0,0.9L125.8,108.7z"/>
		<path class="st1" d="M136.6,118c-0.1-0.4-0.2-0.7-0.3-0.8c-0.1-0.2-0.3-0.2-0.5-0.2c-0.2,0-0.4,0-0.8,0.1l-3.3,0.8
			c-0.6,0.1-1.1,0.2-1.4,0.3c-0.3,0-0.6,0-1-0.1c-0.7-0.2-1.2-0.6-1.6-1.1c-0.4-0.5-0.6-1.1-0.7-1.6c-0.1-0.4-0.1-0.8-0.1-1.3
			c0-0.5,0.1-0.9,0.2-1.3s0.4-0.8,0.8-1.1c0.2-0.2,0.4-0.3,0.6-0.4c0.2-0.1,0.4-0.2,0.6-0.2c0.2-0.1,0.4-0.1,0.8-0.2l3.7-0.9
			c0.4-0.1,0.6-0.2,0.8-0.4c0.1-0.2,0.1-0.6,0-1.1l0.6-0.1l1.1,4.5l-0.6,0.1c-0.1-0.4-0.2-0.7-0.3-0.8c-0.1-0.2-0.3-0.3-0.4-0.3
			c-0.2,0-0.4,0-0.6,0.1l-3.7,0.9c-0.4,0.1-0.7,0.2-1,0.3c-0.3,0.1-0.5,0.2-0.7,0.4c-0.3,0.2-0.5,0.6-0.7,1c-0.1,0.4-0.1,0.8,0,1.2
			c0.1,0.5,0.3,0.9,0.6,1.2c0.3,0.3,0.7,0.5,1.1,0.6c0.3,0.1,0.6,0.1,0.9,0c0.3,0,0.7-0.1,1.1-0.2l3.2-0.8c0.3-0.1,0.5-0.1,0.6-0.2
			c0.1-0.1,0.2-0.1,0.3-0.2c0.1-0.1,0.1-0.3,0.1-0.4c0-0.2,0-0.4-0.1-0.8l0.6-0.1l0.8,3.3L136.6,118z"/>
		<path class="st1" d="M140.4,127.7c-0.2-0.4-0.3-0.7-0.5-0.8c-0.2-0.1-0.3-0.2-0.5-0.2c-0.2,0-0.4,0.1-0.8,0.2l-6.7,2.7l-0.2-0.6
			l4.4-8.1l-4.7,1.8c-0.4,0.1-0.6,0.3-0.7,0.4c-0.1,0.1-0.2,0.3-0.2,0.5c0,0.2,0.1,0.5,0.2,0.9l-0.6,0.2l-1.2-3.1l0.6-0.2
			c0.1,0.4,0.3,0.6,0.5,0.8c0.2,0.1,0.3,0.2,0.5,0.2c0.2,0,0.4-0.1,0.8-0.2l4.3-1.7c0.4-0.1,0.6-0.3,0.8-0.3
			c0.2-0.1,0.3-0.2,0.4-0.3c0.1-0.1,0.2-0.3,0.2-0.5c0-0.2,0-0.4-0.1-0.7l0.6-0.2l1,2.5l-3.8,7.1l3.9-1.5c0.3-0.1,0.6-0.2,0.7-0.4
			c0.2-0.1,0.2-0.3,0.3-0.5c0-0.2,0-0.5-0.2-0.9l0.6-0.2l1.3,3.2L140.4,127.7z"/>
		<path class="st1" d="M137.7,139.9l-2.2-3.7l0.5-0.3c0.2,0.3,0.3,0.5,0.5,0.6c0.1,0.1,0.3,0.1,0.4,0c0.1-0.1,0.2-0.2,0.3-0.3
			l0.7-0.9l-1.5-2.6l-0.6,0.1c-0.3,0.1-0.6,0.1-0.7,0.2c-0.2,0.1-0.3,0.3-0.3,0.5c0,0.2,0.1,0.4,0.3,0.7l-0.5,0.3l-1.6-2.7l0.5-0.3
			c0.1,0.2,0.3,0.4,0.4,0.5c0.2,0.1,0.4,0.2,0.7,0.2c0.3,0,0.7,0,1.2-0.1l7.3-1.2l0.3,0.6l-4.7,6c-0.3,0.4-0.6,0.7-0.7,0.9
			c-0.1,0.2-0.2,0.4-0.2,0.5c0,0.2,0.1,0.4,0.2,0.7L137.7,139.9z M138.5,134.9l2.1-2.7l-3.3,0.6L138.5,134.9z"/>
		<path class="st1" d="M151.6,143.6c-0.3-0.3-0.5-0.5-0.7-0.6c-0.2-0.1-0.4-0.1-0.5,0c-0.2,0.1-0.4,0.2-0.7,0.5l-5.6,4.6l-0.4-0.5
			l1.6-9.1l-3.9,3.2c-0.3,0.2-0.5,0.4-0.6,0.6c-0.1,0.1-0.1,0.3-0.1,0.5c0.1,0.2,0.2,0.5,0.5,0.8l-0.5,0.4l-2.2-2.6l0.5-0.4
			c0.3,0.3,0.5,0.5,0.7,0.6c0.2,0.1,0.4,0.1,0.5,0c0.2-0.1,0.4-0.2,0.7-0.5l3.6-3c0.3-0.2,0.5-0.4,0.6-0.6c0.1-0.1,0.2-0.3,0.3-0.4
			c0.1-0.1,0.1-0.3,0-0.5c0-0.2-0.1-0.4-0.3-0.7l0.5-0.4l1.7,2l-1.4,7.9l3.2-2.7c0.3-0.2,0.4-0.4,0.6-0.6c0.1-0.2,0.1-0.3,0.1-0.5
			c0-0.2-0.2-0.5-0.5-0.8l0.5-0.4l2.2,2.6L151.6,143.6z"/>
		<path class="st1" d="M162.4,152.3c-0.3-0.3-0.6-0.4-0.8-0.5c-0.2,0-0.4,0-0.5,0.1c-0.1,0.1-0.3,0.3-0.6,0.6l-4.3,5.8l-0.5-0.4
			l-0.5-9.2l-3,4c-0.2,0.3-0.4,0.5-0.4,0.7c-0.1,0.2,0,0.3,0,0.5c0.1,0.2,0.3,0.4,0.7,0.7l-0.4,0.5l-2.7-2l0.4-0.5
			c0.3,0.2,0.6,0.4,0.8,0.4c0.2,0,0.4,0,0.5-0.1c0.1-0.1,0.3-0.3,0.5-0.6l2.8-3.7c0.2-0.3,0.4-0.5,0.5-0.7c0.1-0.2,0.2-0.3,0.2-0.5
			c0-0.2,0-0.3-0.1-0.5c-0.1-0.2-0.2-0.4-0.5-0.6l0.4-0.5l2.1,1.6l0.5,8l2.5-3.3c0.2-0.3,0.3-0.5,0.4-0.7c0.1-0.2,0.1-0.4,0-0.5
			c-0.1-0.2-0.3-0.4-0.6-0.6l0.4-0.5l2.7,2L162.4,152.3z"/>
		<path class="st1" d="M170.3,160.9c-0.4,0.7-0.9,1.3-1.6,1.8c-0.7,0.5-1.5,0.7-2.4,0.7c-0.9,0-1.8-0.2-2.7-0.7
			c-0.8-0.4-1.4-0.9-1.8-1.4c-0.5-0.5-0.8-1.1-0.9-1.7c-0.2-0.6-0.2-1.2-0.1-1.8c0.1-0.6,0.3-1.1,0.5-1.6c0.4-0.7,0.9-1.3,1.6-1.8
			c0.7-0.5,1.4-0.7,2.3-0.7c0.9,0,1.8,0.2,2.7,0.7c0.9,0.5,1.5,1,2,1.6c0.5,0.6,0.7,1.2,0.9,1.8c0.1,0.6,0.1,1.2,0,1.7
			C170.6,160,170.5,160.4,170.3,160.9z M168.3,159.8c0.2-0.5,0.4-0.9,0.6-1.3c0.1-0.4,0.2-0.9,0.2-1.3c0-0.4-0.2-0.8-0.4-1.2
			c-0.2-0.4-0.6-0.7-1.1-0.9c-0.7-0.4-1.3-0.5-1.9-0.3c-0.6,0.1-1,0.4-1.4,0.9c-0.4,0.4-0.8,1-1.1,1.6c-0.2,0.3-0.3,0.7-0.5,1.1
			c-0.1,0.4-0.2,0.8-0.3,1.3c0,0.5,0.1,0.9,0.3,1.4c0.2,0.5,0.6,0.8,1.2,1.1c0.6,0.3,1.1,0.4,1.6,0.3c0.5-0.1,0.9-0.3,1.3-0.6
			c0.4-0.3,0.7-0.6,0.9-0.9C168,160.5,168.2,160.1,168.3,159.8z"/>
		<path class="st1" d="M179.4,169l-2.3-0.8c-0.1-0.1-0.1-0.3-0.2-0.5c-0.1-0.2-0.1-0.5-0.2-0.8c-0.1-0.3-0.1-0.5-0.2-0.7l-0.2-1.2
			c-0.1-0.5-0.2-0.9-0.3-1.1c-0.1-0.2-0.2-0.4-0.3-0.5c-0.2-0.1-0.4-0.2-0.8-0.4l-0.3-0.1l-0.8,2.2c-0.1,0.2-0.1,0.4-0.1,0.6
			c0,0.2,0.1,0.3,0.2,0.5c0.2,0.1,0.4,0.3,0.8,0.4l-0.2,0.6l-4.3-1.5l0.2-0.6c0.5,0.2,0.9,0.2,1.1,0.1c0.2-0.1,0.4-0.3,0.5-0.7
			l1.9-5.4c0.1-0.4,0.1-0.7,0.1-0.9c-0.1-0.2-0.4-0.4-0.9-0.6l0.2-0.6l2,0.6c0.2,0,0.3,0.1,0.5,0.2c0.2,0.1,0.4,0.1,0.6,0.2
			c0.1,0,0.3,0.1,0.6,0.2c0.4,0.2,0.8,0.3,1.2,0.5c0.4,0.2,0.6,0.3,0.8,0.5c0.3,0.2,0.5,0.4,0.8,0.7c0.2,0.3,0.4,0.6,0.4,1
			c0.1,0.4,0,0.8-0.1,1.2c-0.1,0.3-0.3,0.5-0.5,0.8c-0.2,0.2-0.5,0.4-0.9,0.5c-0.4,0.1-0.8,0.2-1.3,0.1c0.2,0.3,0.4,0.6,0.5,1
			c0.1,0.3,0.3,1,0.5,1.8c0.1,0.5,0.2,0.9,0.3,1.2c0.1,0.3,0.2,0.5,0.3,0.6c0.1,0.1,0.3,0.2,0.5,0.3L179.4,169z M178.1,161.5
			c0.2-0.7,0.2-1.2-0.1-1.6c-0.3-0.4-0.8-0.7-1.5-0.9c-0.1,0-0.2-0.1-0.2-0.1c-0.1,0-0.1,0-0.2-0.1l-1.2,3.5l0.4,0.1
			c0.6,0.2,1.2,0.3,1.7,0.3C177.4,162.6,177.8,162.2,178.1,161.5z"/>
		<path class="st1" d="M193.4,171.8l-4.5-0.8l0.1-0.6c0.4,0.1,0.7,0.1,0.9,0c0.2,0,0.3-0.1,0.4-0.3c0.1-0.1,0.1-0.3,0.2-0.6l1-5.6
			l-4.7,6.7l-0.4-0.1l-2.1-7.9l-1,5.3c-0.1,0.3-0.1,0.5-0.1,0.7c0,0.2,0,0.3,0.1,0.4c0.1,0.1,0.2,0.2,0.3,0.3
			c0.2,0.1,0.4,0.2,0.7,0.2l-0.1,0.6l-3.3-0.6l0.1-0.6c0.3,0.1,0.6,0.1,0.8,0.1c0.2,0,0.3-0.1,0.4-0.2c0.1-0.1,0.2-0.2,0.2-0.4
			c0-0.1,0.1-0.4,0.1-0.6l0.9-5.1c0.1-0.4,0.1-0.7,0.1-0.8c0-0.2-0.1-0.3-0.3-0.4c-0.2-0.1-0.5-0.2-0.9-0.3l0.1-0.6l3.3,0.6l1.8,6.9
			l4.1-5.8l3.2,0.6l-0.1,0.6c-0.6-0.1-0.9-0.1-1.1,0c-0.2,0.1-0.3,0.4-0.4,0.8l-1,5.6c0,0.2-0.1,0.4,0,0.6c0,0.2,0.1,0.3,0.3,0.4
			c0.2,0.1,0.5,0.2,0.8,0.3L193.4,171.8z"/>
		<path class="st1" d="M204.3,172l-4.3-0.1l0-0.6c0.4,0,0.6,0,0.8-0.1c0.2,0,0.3-0.2,0.3-0.4c0-0.1,0-0.3-0.1-0.4l-0.4-1.1l-3-0.1
			l-0.2,0.6c-0.1,0.3-0.2,0.6-0.2,0.7c0,0.3,0.1,0.4,0.3,0.5c0.2,0.1,0.4,0.1,0.7,0.1l0,0.6l-3.1-0.1l0-0.6c0.3,0,0.5,0,0.6-0.1
			c0.2-0.1,0.3-0.3,0.5-0.5c0.2-0.3,0.3-0.6,0.5-1.1l2.7-6.8l0.6,0l2.7,7.1c0.2,0.5,0.3,0.8,0.4,1c0.1,0.2,0.2,0.3,0.4,0.4
			c0.2,0.1,0.4,0.2,0.7,0.2L204.3,172z M200.4,168.7l-1.2-3.2l-1.3,3.2L200.4,168.7z"/>
		<path class="st1" d="M213.7,167.9l0.3,3l-8.1,1l-0.1-0.6c0.6-0.1,0.9-0.2,1-0.4c0.1-0.2,0.2-0.5,0.1-0.9l-0.7-5.7
			c0-0.3-0.1-0.5-0.2-0.6c-0.1-0.1-0.2-0.2-0.4-0.3c-0.2-0.1-0.5-0.1-0.9,0l-0.1-0.6l4.5-0.5l0.1,0.6c-0.4,0-0.7,0.1-0.8,0.2
			c-0.2,0.1-0.3,0.2-0.3,0.4c0,0.2,0,0.4,0,0.6l0.6,5.2c0,0.4,0.1,0.7,0.2,0.9c0.1,0.2,0.2,0.3,0.4,0.4c0.2,0.1,0.5,0.1,0.9,0
			c0.5-0.1,1-0.2,1.3-0.3c0.4-0.1,0.7-0.4,1-0.7c0.3-0.4,0.4-0.9,0.4-1.6L213.7,167.9z"/>
		<path class="st1" d="M226.4,158.5c-0.4,0.1-0.6,0.3-0.8,0.4c-0.1,0.1-0.2,0.3-0.2,0.5c0,0.2,0.1,0.4,0.2,0.8l1.1,3.2
			c0.2,0.6,0.3,1,0.4,1.3c0.1,0.3,0.1,0.6,0,1c-0.1,0.7-0.4,1.2-1,1.7c-0.5,0.4-1,0.7-1.6,0.9c-0.4,0.1-0.8,0.2-1.3,0.3
			c-0.5,0-0.9,0-1.3-0.1c-0.4-0.1-0.8-0.3-1.1-0.7c-0.2-0.2-0.3-0.4-0.4-0.6c-0.1-0.2-0.2-0.4-0.3-0.6c-0.1-0.2-0.2-0.4-0.3-0.7
			l-1.2-3.6c-0.1-0.4-0.3-0.6-0.5-0.7c-0.2-0.1-0.6-0.1-1.1,0.1l-0.2-0.6l4.4-1.5l0.2,0.6c-0.4,0.1-0.6,0.3-0.8,0.4
			c-0.2,0.1-0.2,0.3-0.3,0.4c0,0.2,0,0.4,0.1,0.6l1.2,3.6c0.1,0.4,0.2,0.7,0.4,1c0.1,0.3,0.3,0.5,0.4,0.7c0.3,0.3,0.6,0.5,1,0.6
			c0.4,0.1,0.8,0.1,1.2-0.1c0.4-0.1,0.8-0.4,1.1-0.7c0.3-0.3,0.5-0.7,0.5-1.1c0-0.3,0-0.6,0-0.9c-0.1-0.3-0.2-0.7-0.3-1.1l-1-3.1
			c-0.1-0.3-0.2-0.5-0.2-0.6c-0.1-0.1-0.1-0.2-0.3-0.3c-0.1-0.1-0.3-0.1-0.5-0.1c-0.2,0-0.4,0.1-0.8,0.2l-0.2-0.6l3.2-1.1
			L226.4,158.5z"/>
		<path class="st1" d="M235.6,153.7c-0.4,0.2-0.6,0.4-0.8,0.5c-0.1,0.2-0.2,0.3-0.1,0.5c0,0.2,0.1,0.4,0.3,0.8l3.4,6.4l-0.5,0.3
			l-8.6-3.5l2.3,4.4c0.2,0.3,0.3,0.6,0.4,0.7c0.1,0.1,0.3,0.2,0.5,0.2c0.2,0,0.5-0.1,0.9-0.3l0.3,0.5l-3,1.6l-0.3-0.5
			c0.4-0.2,0.6-0.4,0.7-0.5c0.1-0.2,0.2-0.3,0.1-0.5c0-0.2-0.2-0.4-0.3-0.8l-2.2-4.1c-0.2-0.3-0.3-0.6-0.4-0.7s-0.2-0.3-0.4-0.4
			c-0.1-0.1-0.3-0.1-0.5-0.1c-0.2,0-0.4,0.1-0.7,0.2l-0.3-0.5l2.4-1.2l7.4,3l-1.9-3.7c-0.2-0.3-0.3-0.5-0.4-0.7
			c-0.1-0.1-0.3-0.2-0.5-0.2c-0.2,0-0.5,0.1-0.9,0.3l-0.3-0.5l3-1.6L235.6,153.7z"/>
		<path class="st1" d="M244.6,157.8l-3.8,2.6l-0.3-0.5c0.3-0.2,0.5-0.4,0.7-0.6c0.1-0.2,0.2-0.3,0.1-0.5c0-0.2-0.1-0.3-0.3-0.6
			l-3.2-4.7c-0.2-0.3-0.4-0.5-0.7-0.5c-0.2,0-0.6,0.1-1,0.4l-0.3-0.5l3.8-2.6l0.3,0.5c-0.3,0.2-0.5,0.4-0.7,0.6
			c-0.1,0.2-0.2,0.3-0.1,0.5c0,0.2,0.1,0.3,0.3,0.6l3.2,4.7c0.1,0.2,0.3,0.4,0.4,0.5c0.1,0.1,0.3,0.1,0.5,0.1c0.2,0,0.5-0.2,0.8-0.4
			L244.6,157.8z"/>
		<path class="st1" d="M247.8,143.9c-0.2,0.1-0.3,0.3-0.4,0.4c-0.1,0.1-0.1,0.3-0.1,0.4c0,0.2,0,0.3,0.1,0.6c0.1,0.2,0.2,0.5,0.3,1
			l2.4,7.2l-0.5,0.4l-7.1-3.4c-0.4-0.2-0.8-0.3-1-0.4c-0.2-0.1-0.4-0.1-0.6,0c-0.2,0.1-0.4,0.2-0.7,0.5l-0.4-0.5l3.5-3.1l0.4,0.5
			c-0.3,0.3-0.5,0.5-0.6,0.7c-0.1,0.2-0.1,0.3,0.1,0.5c0.1,0.2,0.3,0.3,0.5,0.4l4.8,2.3l-1.6-4.7c-0.1-0.4-0.3-0.7-0.4-0.8
			c-0.2-0.2-0.4-0.3-0.6-0.2c-0.2,0.1-0.5,0.2-0.8,0.5l-0.4-0.5l2.5-2.2L247.8,143.9z"/>
		<path class="st1" d="M257.5,140.8l2.3,2l-5.2,6.3l-0.5-0.4c0.4-0.4,0.5-0.8,0.5-1c0-0.2-0.2-0.5-0.5-0.7l-4.4-3.6
			c-0.2-0.2-0.4-0.3-0.5-0.3c-0.1-0.1-0.3,0-0.5,0.1c-0.2,0.1-0.4,0.3-0.7,0.6l-0.5-0.4l4.8-5.8l1.9,1.4l-0.4,0.5
			c-0.5-0.2-0.9-0.3-1.2-0.3c-0.3,0-0.5,0.1-0.7,0.2c-0.2,0.1-0.4,0.4-0.7,0.7l-1.1,1.3l2.5,2.1l0.6-0.7c0.2-0.2,0.3-0.4,0.4-0.6
			c0.1-0.2,0-0.3,0-0.5c-0.1-0.1-0.2-0.3-0.5-0.6l0.4-0.5l2.3,1.9l-0.4,0.5c-0.3-0.2-0.5-0.3-0.7-0.4c-0.2,0-0.3,0-0.5,0.1
			c-0.1,0.1-0.3,0.2-0.5,0.5l-0.6,0.7l1.7,1.4c0.3,0.2,0.5,0.4,0.6,0.5c0.1,0.1,0.3,0.1,0.4,0.2c0.1,0,0.3,0,0.4-0.1
			c0.2-0.1,0.3-0.3,0.5-0.5l0.5-0.6c0.2-0.2,0.4-0.5,0.5-0.8c0.1-0.3,0.1-0.6,0.1-1c-0.1-0.4-0.4-0.9-0.8-1.4L257.5,140.8z"/>
		<path class="st1" d="M266.1,132.6l-1.3,2.1c-0.1,0-0.3,0-0.5,0.1c-0.2,0-0.5,0-0.8,0c-0.3,0-0.5,0-0.7,0l-1.2,0
			c-0.5,0-0.9,0-1.1,0.1c-0.2,0-0.4,0.1-0.5,0.2c-0.1,0.1-0.3,0.4-0.5,0.8l-0.2,0.3l2,1.2c0.2,0.1,0.4,0.2,0.6,0.2
			c0.2,0,0.3,0,0.5-0.1c0.2-0.1,0.4-0.4,0.6-0.7l0.5,0.3L261,141l-0.5-0.3c0.3-0.5,0.4-0.8,0.3-1c-0.1-0.2-0.3-0.4-0.6-0.6l-4.9-3
			c-0.3-0.2-0.6-0.3-0.8-0.2c-0.2,0-0.5,0.3-0.8,0.8l-0.5-0.3l1-1.8c0.1-0.1,0.2-0.3,0.3-0.5c0.1-0.2,0.2-0.3,0.3-0.5
			c0.1-0.1,0.2-0.3,0.4-0.6c0.2-0.4,0.5-0.7,0.7-1c0.2-0.3,0.4-0.6,0.6-0.7c0.2-0.2,0.5-0.4,0.9-0.6c0.3-0.2,0.7-0.2,1-0.2
			c0.4,0,0.7,0.1,1.1,0.3c0.3,0.2,0.5,0.4,0.7,0.6c0.2,0.3,0.3,0.6,0.3,0.9c0,0.4,0,0.8-0.1,1.3c0.3-0.2,0.7-0.3,1-0.3
			c0.4,0,1-0.1,1.9-0.1c0.5,0,0.9,0,1.2-0.1c0.3,0,0.5-0.1,0.6-0.2c0.1-0.1,0.3-0.2,0.4-0.4L266.1,132.6z M258.4,132.4
			c-0.6-0.4-1.1-0.4-1.6-0.2c-0.4,0.3-0.8,0.7-1.2,1.3c-0.1,0.1-0.1,0.2-0.1,0.2c0,0-0.1,0.1-0.1,0.2l3.1,1.9l0.2-0.4
			c0.3-0.6,0.5-1.1,0.6-1.6C259.4,133.3,259.1,132.8,258.4,132.4z"/>
		<path class="st1" d="M267,123.9c0.3,0.1,0.5,0.3,0.7,0.5c0.2,0.2,0.4,0.5,0.6,0.9c0.2,0.3,0.3,0.7,0.3,1.1c0,0.4-0.1,0.8-0.3,1.3
			c-0.2,0.4-0.5,0.8-0.9,1.2c-0.4,0.4-0.8,0.6-1.3,0.7c0.2,0.3,0.5,0.5,0.7,0.6l-0.2,0.6l-2.9-1.2l0.2-0.6c0.5,0.1,0.9,0.1,1.3,0.1
			c0.4,0,0.9-0.1,1.3-0.4c0.4-0.2,0.7-0.6,0.9-1c0.2-0.4,0.2-0.8,0.1-1.2c-0.1-0.4-0.4-0.6-0.7-0.8c-0.2-0.1-0.4-0.1-0.6-0.1
			c-0.2,0-0.4,0.1-0.5,0.2c-0.2,0.1-0.4,0.2-0.6,0.4c-0.2,0.2-0.5,0.4-0.8,0.7c-0.5,0.4-0.9,0.7-1.3,0.9c-0.4,0.2-0.7,0.4-1,0.4
			c-0.3,0.1-0.6,0.1-0.8,0.1c-0.2,0-0.5-0.1-0.7-0.2c-0.4-0.2-0.7-0.4-1-0.8c-0.3-0.4-0.4-0.8-0.5-1.3c-0.1-0.5,0-1,0.2-1.5
			c0.2-0.4,0.4-0.7,0.7-1c0.3-0.3,0.7-0.5,1.1-0.6c-0.1-0.1-0.4-0.3-0.6-0.5l0.3-0.6l2.3,1l-0.3,0.6c-1.4-0.1-2.4,0.3-2.8,1.3
			c-0.2,0.4-0.2,0.7-0.1,1c0.1,0.3,0.3,0.5,0.6,0.7c0.2,0.1,0.5,0.1,0.7,0.1c0.2-0.1,0.5-0.2,0.7-0.4c0.2-0.2,0.6-0.5,1-0.9
			c0.6-0.5,1-0.9,1.4-1.1c0.4-0.3,0.8-0.4,1.2-0.5C266.1,123.6,266.6,123.7,267,123.9z"/>
		<path class="st1" d="M271.5,119l-1.5,4.4l-0.6-0.2c0.1-0.4,0.2-0.7,0.2-0.9c0-0.2-0.1-0.4-0.2-0.5c-0.1-0.1-0.3-0.2-0.6-0.3
			l-5.4-1.8c-0.4-0.1-0.7-0.1-0.9,0c-0.2,0.1-0.4,0.4-0.6,1l-0.6-0.2l1.5-4.4l0.6,0.2c-0.1,0.4-0.2,0.7-0.2,0.9
			c0,0.2,0.1,0.4,0.2,0.5c0.1,0.1,0.3,0.2,0.6,0.3l5.4,1.8c0.2,0.1,0.4,0.1,0.6,0.1c0.2,0,0.3-0.1,0.4-0.2c0.1-0.2,0.3-0.4,0.4-0.8
			L271.5,119z"/>
		<path class="st1" d="M267.7,107.3l-0.1,0.6c-0.6-0.1-1-0.1-1.3,0.1c-0.3,0.1-0.5,0.3-0.6,0.5c-0.1,0.2-0.2,0.4-0.3,0.7l-0.3,1.1
			l6.5,1.6c0.3,0.1,0.5,0.1,0.6,0.1c0.2,0,0.3-0.1,0.4-0.3c0.1-0.2,0.2-0.4,0.3-0.8l0.6,0.1l-1.1,4.4l-0.6-0.1
			c0.1-0.5,0.1-0.9,0-1.1c-0.1-0.2-0.4-0.3-0.8-0.4l-6.5-1.6l-0.2,0.9c-0.1,0.4-0.1,0.7-0.1,0.9c0,0.3,0.1,0.5,0.3,0.8
			c0.2,0.2,0.6,0.5,1.1,0.6l-0.1,0.6l-2.5-0.6l2.1-8.8L267.7,107.3z"/>
		<path class="st1" d="M267.2,97c0,0.2,0,0.5,0.1,0.6c0.1,0.2,0.2,0.4,0.4,0.5c0.2,0.2,0.5,0.5,0.9,0.9l2.7,2.3l2.1,0.3
			c0.2,0,0.4,0,0.6,0c0.2,0,0.3-0.1,0.4-0.3c0.1-0.2,0.2-0.5,0.3-0.9l0.6,0.1l-0.6,4.5L274,105c0.1-0.4,0.1-0.7,0-0.9
			c0-0.2-0.1-0.3-0.3-0.4c-0.1-0.1-0.3-0.1-0.6-0.2l-2-0.3l-4.1,1.7c0,0-0.1,0-0.1,0c0,0-0.1,0-0.1,0c-0.3,0.2-0.6,0.3-0.7,0.4
			c-0.1,0.1-0.2,0.4-0.3,0.7l-0.6-0.1l0.6-4.2l0.6,0.1c0,0.2,0,0.4,0,0.5c0,0.1,0,0.2,0.1,0.3c0,0.1,0.1,0.1,0.3,0.2
			c0.1,0,0.2,0,0.3,0c0.1,0,0.4-0.1,0.7-0.3l2.6-1.1l-1.9-1.6c-0.4-0.4-0.7-0.5-0.9-0.6c-0.3,0-0.5,0-0.6,0.2
			c-0.1,0.2-0.2,0.4-0.2,0.7l-0.6-0.1l0.5-3.3L267.2,97z"/>
	</g>
</g>
</svg>
