<?xml version="1.0" standalone="no"?><!DOCTYPE svg PUBLIC "-//W3C//DTD SVG 1.1//EN" "http://www.w3.org/Graphics/SVG/1.1/DTD/svg11.dtd"><svg class="icon" width="200px" height="200.00px" viewBox="0 0 1024 1024" version="1.1" xmlns="http://www.w3.org/2000/svg"><path fill="#000000" d="M496.75264 1.024h32.775168c2.522112 0.29696 5.036032 0.75264 7.565312 0.864256 227.919872 10.097664 423.175168 173.134848 473.944064 395.769856 51.427328 225.518592-53.649408 456.12032-257.574912 565.274624-201.547776 107.88352-452.774912 67.391488-609.96096-98.31936-22.52288-23.745536-42.8544-49.184768-60.899328-77.815808h191.008768c74.796032-111.0528 165.38112-193.145856 309.70368-183.8592 28.193792 6.413312 51.28192 19.125248 67.545088 42.836992 15.823872 23.066624 22.045696 48.812032 22.94272 74.340352v31.236096l-4.77184 34.981888h188.372992l3.588096-28.107776v-50.286592c-16.825344-134.489088-62.76096-248.706048-225.44384-272.95744h-71.836672c-80.207872 10.356736-146.080768 38.391808-205.625344 82.1248 29.40928-79.045632 39.153664-154.986496-38.564864-212.461568-40.607744-30.030848-99.694592-30.810112-130.22208-7.82848 14.303232 27.541504 17.731584 57.884672 17.985536 88.159232 0.242688 28.889088-3.6864 57.746432-12.274688 85.670912-21.655552 70.417408-53.992448 136.047616-90.112 199.908352-14.249984 25.19552-29.874176 49.613824-45.724672 75.79136-2.250752-4.395008-3.426304-6.628352-4.548608-8.890368C21.960704 671.614976 5.752832 601.632768 2.048 528.503808V495.72864c0.294912-2.521088 0.678912-5.035008 0.8704-7.563264C18.128896 287.0272 116.052992 140.857344 295.806976 50.06336 358.685696 18.302976 426.663936 4.651008 496.75264 1.024z m129.595392 358.724608c-40.175616 3.282944-72.54528 10.94656-104.27904 21.7856-32.489472 11.097088-63.48288 25.484288-95.038464 42.779648 10.379264-45.754368 12.416-89.022464-8.46336-130.432-18.56512-36.819968-76.87168-77.036544-102.146048-72.177664-27.81184-4.982784-53.660672-2.318336-79.955968 6.347776l12.919808 29.613056h40.47872c53.039104 9.86624 85.183488 37.132288 102.36928 81.74592 16.380928 42.52672 15.65184 85.721088 3.067904 129.091584C499.606528 397.185024 611.31776 364.899328 731.9552 418.279424 862.0032 475.82208 882.195456 595.984384 892.111872 719.987712h39.493632c-1.922048-83.715072-13.632512-164.740096-57.688064-237.62432-45.607936-75.451392-115.207168-112.75776-202.109952-122.61376h-45.459456z m71.610368-30.386176c68.10112 10.200064 127.683584 31.456256 172.945408 81.88416 54.64064 60.8768 77.50656 134.561792 85.164032 214.972416l1.403904 25.462784h40.941568c13.26592-111.220736-63.926272-268.038144-165.583872-320.5632-120.914944-62.47424-239.937536-38.291456-354.912256 22.818816 11.972608-94.347264-3.008512-141.882368-57.69216-177.772544-41.11872-26.986496-86.140928-25.729024-132.34688-15.949824l10.503168 34.79552c18.065408-2.92352 36.38272-3.441664 55.453696-0.303104C455.277568 226.260992 463.936512 304.128 452.897792 391.349248c74.037248-48.590848 156.524544-71.33696 245.060608-61.986816z"  /></svg>